<svg xmlns="http://www.w3.org/2000/svg" xmlns:xlink="http://www.w3.org/1999/xlink" width="1691" zoomAndPan="magnify" viewBox="0 0 1268.25 652.49998" height="870" preserveAspectRatio="xMidYMid meet" version="1.0"><defs><g/><clipPath id="667d515046"><path d="M 0.109375 65.382812 L 1267 65.382812 L 1267 651.566406 L 0.109375 651.566406 Z M 0.109375 65.382812 " clip-rule="nonzero"/></clipPath><clipPath id="01807c1b1d"><path d="M 75.054688 65.382812 L 1192.320312 65.382812 C 1233.710938 65.382812 1267.261719 98.933594 1267.261719 140.324219 L 1267.261719 576.625 C 1267.261719 618.015625 1233.710938 651.566406 1192.320312 651.566406 L 75.054688 651.566406 C 33.664062 651.566406 0.109375 618.015625 0.109375 576.625 L 0.109375 140.324219 C 0.109375 98.933594 33.664062 65.382812 75.054688 65.382812 Z M 75.054688 65.382812 " clip-rule="nonzero"/></clipPath><clipPath id="60e3e87cbe"><path d="M 0.109375 0 L 1266.367188 0 L 1266.367188 586.1875 L 0.109375 586.1875 Z M 0.109375 0 " clip-rule="nonzero"/></clipPath><clipPath id="cc2ae007d4"><path d="M 75.054688 0 L 1192.320312 0 C 1233.710938 0 1267.261719 33.554688 1267.261719 74.941406 L 1267.261719 511.246094 C 1267.261719 552.632812 1233.710938 586.1875 1192.320312 586.1875 L 75.054688 586.1875 C 33.664062 586.1875 0.109375 552.632812 0.109375 511.246094 L 0.109375 74.941406 C 0.109375 33.554688 33.664062 0 75.054688 0 Z M 75.054688 0 " clip-rule="nonzero"/></clipPath><linearGradient x1="0.000701904" gradientTransform="matrix(2.289794, 0, 0, 2.289794, 0.109246, -0)" y1="128" x2="553.000647" gradientUnits="userSpaceOnUse" y2="128" id="1ae88581c3"><stop stop-opacity="1" stop-color="rgb(43.09845%, 83.099365%, 65.499878%)" offset="0"/><stop stop-opacity="1" stop-color="rgb(42.939758%, 83.023071%, 65.46936%)" offset="0.0078125"/><stop stop-opacity="1" stop-color="rgb(42.622375%, 82.868958%, 65.411377%)" offset="0.015625"/><stop stop-opacity="1" stop-color="rgb(42.304993%, 82.71637%, 65.351868%)" offset="0.0234375"/><stop stop-opacity="1" stop-color="rgb(41.98761%, 82.563782%, 65.293884%)" offset="0.03125"/><stop stop-opacity="1" stop-color="rgb(41.668701%, 82.409668%, 65.235901%)" offset="0.0390625"/><stop stop-opacity="1" stop-color="rgb(41.351318%, 82.25708%, 65.176392%)" offset="0.046875"/><stop stop-opacity="1" stop-color="rgb(41.033936%, 82.104492%, 65.118408%)" offset="0.0546875"/><stop stop-opacity="1" stop-color="rgb(40.716553%, 81.951904%, 65.060425%)" offset="0.0625"/><stop stop-opacity="1" stop-color="rgb(40.397644%, 81.797791%, 65.000916%)" offset="0.0703125"/><stop stop-opacity="1" stop-color="rgb(40.080261%, 81.645203%, 64.942932%)" offset="0.078125"/><stop stop-opacity="1" stop-color="rgb(39.762878%, 81.492615%, 64.883423%)" offset="0.0859375"/><stop stop-opacity="1" stop-color="rgb(39.445496%, 81.340027%, 64.825439%)" offset="0.09375"/><stop stop-opacity="1" stop-color="rgb(39.126587%, 81.185913%, 64.767456%)" offset="0.101562"/><stop stop-opacity="1" stop-color="rgb(38.809204%, 81.033325%, 64.707947%)" offset="0.109375"/><stop stop-opacity="1" stop-color="rgb(38.491821%, 80.880737%, 64.649963%)" offset="0.117188"/><stop stop-opacity="1" stop-color="rgb(38.174438%, 80.726624%, 64.59198%)" offset="0.125"/><stop stop-opacity="1" stop-color="rgb(37.85553%, 80.574036%, 64.532471%)" offset="0.132812"/><stop stop-opacity="1" stop-color="rgb(37.538147%, 80.421448%, 64.474487%)" offset="0.140625"/><stop stop-opacity="1" stop-color="rgb(37.220764%, 80.26886%, 64.414978%)" offset="0.148437"/><stop stop-opacity="1" stop-color="rgb(36.903381%, 80.114746%, 64.356995%)" offset="0.15625"/><stop stop-opacity="1" stop-color="rgb(36.585999%, 79.962158%, 64.299011%)" offset="0.164062"/><stop stop-opacity="1" stop-color="rgb(36.26709%, 79.80957%, 64.239502%)" offset="0.171875"/><stop stop-opacity="1" stop-color="rgb(35.949707%, 79.655457%, 64.181519%)" offset="0.179687"/><stop stop-opacity="1" stop-color="rgb(35.632324%, 79.502869%, 64.123535%)" offset="0.1875"/><stop stop-opacity="1" stop-color="rgb(35.314941%, 79.350281%, 64.064026%)" offset="0.195312"/><stop stop-opacity="1" stop-color="rgb(34.996033%, 79.197693%, 64.006042%)" offset="0.203125"/><stop stop-opacity="1" stop-color="rgb(34.67865%, 79.043579%, 63.948059%)" offset="0.210937"/><stop stop-opacity="1" stop-color="rgb(34.361267%, 78.890991%, 63.88855%)" offset="0.21875"/><stop stop-opacity="1" stop-color="rgb(34.043884%, 78.738403%, 63.830566%)" offset="0.226562"/><stop stop-opacity="1" stop-color="rgb(33.724976%, 78.58429%, 63.771057%)" offset="0.234375"/><stop stop-opacity="1" stop-color="rgb(33.407593%, 78.431702%, 63.713074%)" offset="0.242187"/><stop stop-opacity="1" stop-color="rgb(33.09021%, 78.279114%, 63.65509%)" offset="0.25"/><stop stop-opacity="1" stop-color="rgb(32.772827%, 78.126526%, 63.595581%)" offset="0.257812"/><stop stop-opacity="1" stop-color="rgb(32.453918%, 77.972412%, 63.537598%)" offset="0.265625"/><stop stop-opacity="1" stop-color="rgb(32.136536%, 77.819824%, 63.479614%)" offset="0.273437"/><stop stop-opacity="1" stop-color="rgb(31.819153%, 77.667236%, 63.420105%)" offset="0.28125"/><stop stop-opacity="1" stop-color="rgb(31.50177%, 77.514648%, 63.362122%)" offset="0.289062"/><stop stop-opacity="1" stop-color="rgb(31.184387%, 77.360535%, 63.302612%)" offset="0.296875"/><stop stop-opacity="1" stop-color="rgb(30.865479%, 77.207947%, 63.244629%)" offset="0.304687"/><stop stop-opacity="1" stop-color="rgb(30.548096%, 77.055359%, 63.186646%)" offset="0.3125"/><stop stop-opacity="1" stop-color="rgb(30.230713%, 76.901245%, 63.127136%)" offset="0.320312"/><stop stop-opacity="1" stop-color="rgb(29.91333%, 76.748657%, 63.069153%)" offset="0.328125"/><stop stop-opacity="1" stop-color="rgb(29.594421%, 76.596069%, 63.011169%)" offset="0.335937"/><stop stop-opacity="1" stop-color="rgb(29.277039%, 76.443481%, 62.95166%)" offset="0.34375"/><stop stop-opacity="1" stop-color="rgb(28.959656%, 76.289368%, 62.893677%)" offset="0.351562"/><stop stop-opacity="1" stop-color="rgb(28.642273%, 76.13678%, 62.834167%)" offset="0.359375"/><stop stop-opacity="1" stop-color="rgb(28.323364%, 75.984192%, 62.776184%)" offset="0.367187"/><stop stop-opacity="1" stop-color="rgb(28.005981%, 75.830078%, 62.718201%)" offset="0.375"/><stop stop-opacity="1" stop-color="rgb(27.688599%, 75.67749%, 62.658691%)" offset="0.382812"/><stop stop-opacity="1" stop-color="rgb(27.371216%, 75.524902%, 62.600708%)" offset="0.390625"/><stop stop-opacity="1" stop-color="rgb(27.052307%, 75.372314%, 62.542725%)" offset="0.398438"/><stop stop-opacity="1" stop-color="rgb(26.734924%, 75.218201%, 62.483215%)" offset="0.40625"/><stop stop-opacity="1" stop-color="rgb(26.417542%, 75.065613%, 62.425232%)" offset="0.414062"/><stop stop-opacity="1" stop-color="rgb(26.100159%, 74.913025%, 62.365723%)" offset="0.421875"/><stop stop-opacity="1" stop-color="rgb(25.78125%, 74.758911%, 62.307739%)" offset="0.429688"/><stop stop-opacity="1" stop-color="rgb(25.463867%, 74.606323%, 62.249756%)" offset="0.4375"/><stop stop-opacity="1" stop-color="rgb(25.146484%, 74.453735%, 62.190247%)" offset="0.445312"/><stop stop-opacity="1" stop-color="rgb(24.829102%, 74.301147%, 62.132263%)" offset="0.453125"/><stop stop-opacity="1" stop-color="rgb(24.511719%, 74.147034%, 62.07428%)" offset="0.460938"/><stop stop-opacity="1" stop-color="rgb(24.19281%, 73.994446%, 62.014771%)" offset="0.46875"/><stop stop-opacity="1" stop-color="rgb(23.875427%, 73.841858%, 61.956787%)" offset="0.476562"/><stop stop-opacity="1" stop-color="rgb(23.558044%, 73.687744%, 61.897278%)" offset="0.484375"/><stop stop-opacity="1" stop-color="rgb(23.240662%, 73.535156%, 61.839294%)" offset="0.492187"/><stop stop-opacity="1" stop-color="rgb(22.921753%, 73.382568%, 61.781311%)" offset="0.5"/><stop stop-opacity="1" stop-color="rgb(22.60437%, 73.22998%, 61.721802%)" offset="0.507812"/><stop stop-opacity="1" stop-color="rgb(22.286987%, 73.075867%, 61.663818%)" offset="0.515625"/><stop stop-opacity="1" stop-color="rgb(21.969604%, 72.923279%, 61.605835%)" offset="0.523437"/><stop stop-opacity="1" stop-color="rgb(21.650696%, 72.770691%, 61.546326%)" offset="0.53125"/><stop stop-opacity="1" stop-color="rgb(21.333313%, 72.618103%, 61.488342%)" offset="0.539063"/><stop stop-opacity="1" stop-color="rgb(21.01593%, 72.463989%, 61.428833%)" offset="0.546875"/><stop stop-opacity="1" stop-color="rgb(20.698547%, 72.311401%, 61.37085%)" offset="0.554688"/><stop stop-opacity="1" stop-color="rgb(20.379639%, 72.158813%, 61.312866%)" offset="0.5625"/><stop stop-opacity="1" stop-color="rgb(20.062256%, 72.0047%, 61.253357%)" offset="0.570312"/><stop stop-opacity="1" stop-color="rgb(19.744873%, 71.852112%, 61.195374%)" offset="0.578125"/><stop stop-opacity="1" stop-color="rgb(19.42749%, 71.699524%, 61.13739%)" offset="0.585938"/><stop stop-opacity="1" stop-color="rgb(19.110107%, 71.546936%, 61.077881%)" offset="0.59375"/><stop stop-opacity="1" stop-color="rgb(18.791199%, 71.392822%, 61.019897%)" offset="0.601562"/><stop stop-opacity="1" stop-color="rgb(18.473816%, 71.240234%, 60.960388%)" offset="0.609375"/><stop stop-opacity="1" stop-color="rgb(18.156433%, 71.087646%, 60.902405%)" offset="0.617187"/><stop stop-opacity="1" stop-color="rgb(17.83905%, 70.933533%, 60.844421%)" offset="0.625"/><stop stop-opacity="1" stop-color="rgb(17.520142%, 70.780945%, 60.784912%)" offset="0.632812"/><stop stop-opacity="1" stop-color="rgb(17.202759%, 70.628357%, 60.726929%)" offset="0.640625"/><stop stop-opacity="1" stop-color="rgb(16.885376%, 70.475769%, 60.668945%)" offset="0.648438"/><stop stop-opacity="1" stop-color="rgb(16.567993%, 70.321655%, 60.609436%)" offset="0.65625"/><stop stop-opacity="1" stop-color="rgb(16.249084%, 70.169067%, 60.551453%)" offset="0.664062"/><stop stop-opacity="1" stop-color="rgb(15.931702%, 70.016479%, 60.493469%)" offset="0.671875"/><stop stop-opacity="1" stop-color="rgb(15.614319%, 69.862366%, 60.43396%)" offset="0.679688"/><stop stop-opacity="1" stop-color="rgb(15.296936%, 69.709778%, 60.375977%)" offset="0.6875"/><stop stop-opacity="1" stop-color="rgb(14.978027%, 69.55719%, 60.316467%)" offset="0.695312"/><stop stop-opacity="1" stop-color="rgb(14.660645%, 69.404602%, 60.258484%)" offset="0.703125"/><stop stop-opacity="1" stop-color="rgb(14.343262%, 69.250488%, 60.2005%)" offset="0.710938"/><stop stop-opacity="1" stop-color="rgb(14.025879%, 69.0979%, 60.140991%)" offset="0.71875"/><stop stop-opacity="1" stop-color="rgb(13.708496%, 68.945312%, 60.083008%)" offset="0.726562"/><stop stop-opacity="1" stop-color="rgb(13.389587%, 68.791199%, 60.025024%)" offset="0.734375"/><stop stop-opacity="1" stop-color="rgb(13.072205%, 68.638611%, 59.965515%)" offset="0.742187"/><stop stop-opacity="1" stop-color="rgb(12.754822%, 68.486023%, 59.907532%)" offset="0.75"/><stop stop-opacity="1" stop-color="rgb(12.437439%, 68.333435%, 59.848022%)" offset="0.757812"/><stop stop-opacity="1" stop-color="rgb(12.11853%, 68.179321%, 59.790039%)" offset="0.765625"/><stop stop-opacity="1" stop-color="rgb(11.801147%, 68.026733%, 59.732056%)" offset="0.773438"/><stop stop-opacity="1" stop-color="rgb(11.483765%, 67.874146%, 59.672546%)" offset="0.78125"/><stop stop-opacity="1" stop-color="rgb(11.166382%, 67.721558%, 59.614563%)" offset="0.789062"/><stop stop-opacity="1" stop-color="rgb(10.847473%, 67.567444%, 59.55658%)" offset="0.796875"/><stop stop-opacity="1" stop-color="rgb(10.53009%, 67.414856%, 59.49707%)" offset="0.804688"/><stop stop-opacity="1" stop-color="rgb(10.212708%, 67.262268%, 59.439087%)" offset="0.8125"/><stop stop-opacity="1" stop-color="rgb(9.895325%, 67.108154%, 59.379578%)" offset="0.820312"/><stop stop-opacity="1" stop-color="rgb(9.576416%, 66.955566%, 59.321594%)" offset="0.828125"/><stop stop-opacity="1" stop-color="rgb(9.259033%, 66.802979%, 59.263611%)" offset="0.835938"/><stop stop-opacity="1" stop-color="rgb(8.94165%, 66.650391%, 59.204102%)" offset="0.84375"/><stop stop-opacity="1" stop-color="rgb(8.624268%, 66.496277%, 59.146118%)" offset="0.851562"/><stop stop-opacity="1" stop-color="rgb(8.305359%, 66.343689%, 59.088135%)" offset="0.859375"/><stop stop-opacity="1" stop-color="rgb(7.987976%, 66.191101%, 59.028625%)" offset="0.867187"/><stop stop-opacity="1" stop-color="rgb(7.670593%, 66.036987%, 58.970642%)" offset="0.875"/><stop stop-opacity="1" stop-color="rgb(7.35321%, 65.884399%, 58.911133%)" offset="0.882813"/><stop stop-opacity="1" stop-color="rgb(7.035828%, 65.731812%, 58.853149%)" offset="0.890625"/><stop stop-opacity="1" stop-color="rgb(6.716919%, 65.579224%, 58.795166%)" offset="0.898438"/><stop stop-opacity="1" stop-color="rgb(6.399536%, 65.42511%, 58.735657%)" offset="0.90625"/><stop stop-opacity="1" stop-color="rgb(6.082153%, 65.272522%, 58.677673%)" offset="0.914062"/><stop stop-opacity="1" stop-color="rgb(5.764771%, 65.119934%, 58.61969%)" offset="0.921875"/><stop stop-opacity="1" stop-color="rgb(5.445862%, 64.96582%, 58.560181%)" offset="0.929688"/><stop stop-opacity="1" stop-color="rgb(5.128479%, 64.813232%, 58.502197%)" offset="0.9375"/><stop stop-opacity="1" stop-color="rgb(4.811096%, 64.660645%, 58.442688%)" offset="0.945312"/><stop stop-opacity="1" stop-color="rgb(4.493713%, 64.508057%, 58.384705%)" offset="0.953125"/><stop stop-opacity="1" stop-color="rgb(4.174805%, 64.353943%, 58.326721%)" offset="0.960938"/><stop stop-opacity="1" stop-color="rgb(3.857422%, 64.201355%, 58.267212%)" offset="0.96875"/><stop stop-opacity="1" stop-color="rgb(3.540039%, 64.048767%, 58.209229%)" offset="0.976562"/><stop stop-opacity="1" stop-color="rgb(3.222656%, 63.896179%, 58.151245%)" offset="0.984375"/><stop stop-opacity="1" stop-color="rgb(2.903748%, 63.742065%, 58.091736%)" offset="0.992187"/><stop stop-opacity="1" stop-color="rgb(2.586365%, 63.589478%, 58.033752%)" offset="1"/></linearGradient><clipPath id="9eeaf42c9d"><path d="M 1065 253 L 1118 253 L 1118 288 L 1065 288 Z M 1065 253 " clip-rule="nonzero"/></clipPath><clipPath id="01c40fbba6"><path d="M 1040.511719 21.042969 L 1238.878906 64.613281 L 1185.824219 306.167969 L 987.457031 262.597656 Z M 1040.511719 21.042969 " clip-rule="nonzero"/></clipPath><clipPath id="ea17139b95"><path d="M 1040.511719 21.042969 L 1238.878906 64.613281 L 1185.824219 306.167969 L 987.457031 262.597656 Z M 1040.511719 21.042969 " clip-rule="nonzero"/></clipPath><clipPath id="461d578b15"><path d="M 1065 253 L 1118 253 L 1118 280 L 1065 280 Z M 1065 253 " clip-rule="nonzero"/></clipPath><clipPath id="c2eefb43e2"><path d="M 1040.511719 21.042969 L 1238.878906 64.613281 L 1185.824219 306.167969 L 987.457031 262.597656 Z M 1040.511719 21.042969 " clip-rule="nonzero"/></clipPath><clipPath id="2677d4e120"><path d="M 1040.511719 21.042969 L 1238.878906 64.613281 L 1185.824219 306.167969 L 987.457031 262.597656 Z M 1040.511719 21.042969 " clip-rule="nonzero"/></clipPath><clipPath id="410f6e6f4a"><path d="M 1051 75 L 1185 75 L 1185 239 L 1051 239 Z M 1051 75 " clip-rule="nonzero"/></clipPath><clipPath id="f18a3a9b80"><path d="M 1040.511719 21.042969 L 1238.878906 64.613281 L 1185.824219 306.167969 L 987.457031 262.597656 Z M 1040.511719 21.042969 " clip-rule="nonzero"/></clipPath><clipPath id="d8f23906c9"><path d="M 1040.511719 21.042969 L 1238.878906 64.613281 L 1185.824219 306.167969 L 987.457031 262.597656 Z M 1040.511719 21.042969 " clip-rule="nonzero"/></clipPath><clipPath id="978fbfde55"><path d="M 1079 148 L 1101 148 L 1101 230 L 1079 230 Z M 1079 148 " clip-rule="nonzero"/></clipPath><clipPath id="037be8352a"><path d="M 1040.511719 21.042969 L 1238.878906 64.613281 L 1185.824219 306.167969 L 987.457031 262.597656 Z M 1040.511719 21.042969 " clip-rule="nonzero"/></clipPath><clipPath id="e7b573d436"><path d="M 1040.511719 21.042969 L 1238.878906 64.613281 L 1185.824219 306.167969 L 987.457031 262.597656 Z M 1040.511719 21.042969 " clip-rule="nonzero"/></clipPath><clipPath id="1de7c5bbbe"><path d="M 1107 161 L 1149 161 L 1149 236 L 1107 236 Z M 1107 161 " clip-rule="nonzero"/></clipPath><clipPath id="f6abee83d4"><path d="M 1040.511719 21.042969 L 1238.878906 64.613281 L 1185.824219 306.167969 L 987.457031 262.597656 Z M 1040.511719 21.042969 " clip-rule="nonzero"/></clipPath><clipPath id="b45d7d511b"><path d="M 1040.511719 21.042969 L 1238.878906 64.613281 L 1185.824219 306.167969 L 987.457031 262.597656 Z M 1040.511719 21.042969 " clip-rule="nonzero"/></clipPath><clipPath id="e9a3fc4f7b"><path d="M 1056 217 L 1134 217 L 1134 274 L 1056 274 Z M 1056 217 " clip-rule="nonzero"/></clipPath><clipPath id="5604030105"><path d="M 1040.511719 21.042969 L 1238.878906 64.613281 L 1185.824219 306.167969 L 987.457031 262.597656 Z M 1040.511719 21.042969 " clip-rule="nonzero"/></clipPath><clipPath id="28ced14cb5"><path d="M 1040.511719 21.042969 L 1238.878906 64.613281 L 1185.824219 306.167969 L 987.457031 262.597656 Z M 1040.511719 21.042969 " clip-rule="nonzero"/></clipPath><clipPath id="5a2e19ac81"><path d="M 1061 224 L 1133 224 L 1133 249 L 1061 249 Z M 1061 224 " clip-rule="nonzero"/></clipPath><clipPath id="1165f997e8"><path d="M 1040.511719 21.042969 L 1238.878906 64.613281 L 1185.824219 306.167969 L 987.457031 262.597656 Z M 1040.511719 21.042969 " clip-rule="nonzero"/></clipPath><clipPath id="9c5d1d93e3"><path d="M 1040.511719 21.042969 L 1238.878906 64.613281 L 1185.824219 306.167969 L 987.457031 262.597656 Z M 1040.511719 21.042969 " clip-rule="nonzero"/></clipPath><clipPath id="d729132233"><path d="M 1057 242 L 1111 242 L 1111 262 L 1057 262 Z M 1057 242 " clip-rule="nonzero"/></clipPath><clipPath id="4a58709c22"><path d="M 1040.511719 21.042969 L 1238.878906 64.613281 L 1185.824219 306.167969 L 987.457031 262.597656 Z M 1040.511719 21.042969 " clip-rule="nonzero"/></clipPath><clipPath id="d93a1b54ab"><path d="M 1040.511719 21.042969 L 1238.878906 64.613281 L 1185.824219 306.167969 L 987.457031 262.597656 Z M 1040.511719 21.042969 " clip-rule="nonzero"/></clipPath><clipPath id="447814bc8a"><path d="M 1130 42 L 1144 42 L 1144 69 L 1130 69 Z M 1130 42 " clip-rule="nonzero"/></clipPath><clipPath id="9ab1a6559d"><path d="M 1040.511719 21.042969 L 1238.878906 64.613281 L 1185.824219 306.167969 L 987.457031 262.597656 Z M 1040.511719 21.042969 " clip-rule="nonzero"/></clipPath><clipPath id="e2db3d6818"><path d="M 1040.511719 21.042969 L 1238.878906 64.613281 L 1185.824219 306.167969 L 987.457031 262.597656 Z M 1040.511719 21.042969 " clip-rule="nonzero"/></clipPath><clipPath id="5fbaeccb66"><path d="M 1056 48 L 1080 48 L 1080 80 L 1056 80 Z M 1056 48 " clip-rule="nonzero"/></clipPath><clipPath id="e207b13e2b"><path d="M 1040.511719 21.042969 L 1238.878906 64.613281 L 1185.824219 306.167969 L 987.457031 262.597656 Z M 1040.511719 21.042969 " clip-rule="nonzero"/></clipPath><clipPath id="fbdd8aba13"><path d="M 1040.511719 21.042969 L 1238.878906 64.613281 L 1185.824219 306.167969 L 987.457031 262.597656 Z M 1040.511719 21.042969 " clip-rule="nonzero"/></clipPath><clipPath id="b367fd49e6"><path d="M 1024 180 L 1056 180 L 1056 204 L 1024 204 Z M 1024 180 " clip-rule="nonzero"/></clipPath><clipPath id="691d1528d8"><path d="M 1040.511719 21.042969 L 1238.878906 64.613281 L 1185.824219 306.167969 L 987.457031 262.597656 Z M 1040.511719 21.042969 " clip-rule="nonzero"/></clipPath><clipPath id="f492d56533"><path d="M 1040.511719 21.042969 L 1238.878906 64.613281 L 1185.824219 306.167969 L 987.457031 262.597656 Z M 1040.511719 21.042969 " clip-rule="nonzero"/></clipPath><clipPath id="719fcc7855"><path d="M 1180 80 L 1212 80 L 1212 104 L 1180 104 Z M 1180 80 " clip-rule="nonzero"/></clipPath><clipPath id="de2f00436c"><path d="M 1040.511719 21.042969 L 1238.878906 64.613281 L 1185.824219 306.167969 L 987.457031 262.597656 Z M 1040.511719 21.042969 " clip-rule="nonzero"/></clipPath><clipPath id="2c433411c8"><path d="M 1040.511719 21.042969 L 1238.878906 64.613281 L 1185.824219 306.167969 L 987.457031 262.597656 Z M 1040.511719 21.042969 " clip-rule="nonzero"/></clipPath><clipPath id="694042879a"><path d="M 1156 204 L 1180 204 L 1180 236 L 1156 236 Z M 1156 204 " clip-rule="nonzero"/></clipPath><clipPath id="add3d4ae8b"><path d="M 1040.511719 21.042969 L 1238.878906 64.613281 L 1185.824219 306.167969 L 987.457031 262.597656 Z M 1040.511719 21.042969 " clip-rule="nonzero"/></clipPath><clipPath id="e4df8228f1"><path d="M 1040.511719 21.042969 L 1238.878906 64.613281 L 1185.824219 306.167969 L 987.457031 262.597656 Z M 1040.511719 21.042969 " clip-rule="nonzero"/></clipPath><clipPath id="7f318e8d23"><path d="M 1018 116 L 1045 116 L 1045 130 L 1018 130 Z M 1018 116 " clip-rule="nonzero"/></clipPath><clipPath id="6b4300e1cf"><path d="M 1040.511719 21.042969 L 1238.878906 64.613281 L 1185.824219 306.167969 L 987.457031 262.597656 Z M 1040.511719 21.042969 " clip-rule="nonzero"/></clipPath><clipPath id="d4e8874c3d"><path d="M 1040.511719 21.042969 L 1238.878906 64.613281 L 1185.824219 306.167969 L 987.457031 262.597656 Z M 1040.511719 21.042969 " clip-rule="nonzero"/></clipPath><clipPath id="0196683850"><path d="M 1191 154 L 1218 154 L 1218 168 L 1191 168 Z M 1191 154 " clip-rule="nonzero"/></clipPath><clipPath id="0e04d981b4"><path d="M 1040.511719 21.042969 L 1238.878906 64.613281 L 1185.824219 306.167969 L 987.457031 262.597656 Z M 1040.511719 21.042969 " clip-rule="nonzero"/></clipPath><clipPath id="6efac12449"><path d="M 1040.511719 21.042969 L 1238.878906 64.613281 L 1185.824219 306.167969 L 987.457031 262.597656 Z M 1040.511719 21.042969 " clip-rule="nonzero"/></clipPath><clipPath id="fa42742eaf"><path d="M 754 88 L 1050 88 L 1050 414 L 754 414 Z M 754 88 " clip-rule="nonzero"/></clipPath><clipPath id="57e8d30950"><path d="M 735.515625 188.476562 L 930.417969 85.722656 L 1061.835938 334.988281 L 866.929688 437.742188 Z M 735.515625 188.476562 " clip-rule="nonzero"/></clipPath><clipPath id="d9c9fa5b98"><path d="M 735.515625 188.476562 L 930.417969 85.722656 L 1061.835938 334.988281 L 866.929688 437.742188 Z M 735.515625 188.476562 " clip-rule="nonzero"/></clipPath><clipPath id="ce4f083257"><path d="M 886 342 L 1221 342 L 1221 522 L 886 522 Z M 886 342 " clip-rule="nonzero"/></clipPath><clipPath id="30e4ad7eee"><path d="M 978.355469 267.597656 L 1235.679688 360.378906 L 1144.171875 614.179688 L 886.847656 521.398438 Z M 978.355469 267.597656 " clip-rule="nonzero"/></clipPath><clipPath id="a3b4d23240"><path d="M 978.355469 267.597656 L 1235.679688 360.378906 L 1144.171875 614.179688 L 886.847656 521.398438 Z M 978.355469 267.597656 " clip-rule="nonzero"/></clipPath></defs><g clip-path="url(#667d515046)"><g clip-path="url(#01807c1b1d)"><path fill="#048c82" d="M 0.109375 65.382812 L 1266.367188 65.382812 L 1266.367188 651.570312 L 0.109375 651.570312 Z M 0.109375 65.382812 " fill-opacity="1" fill-rule="nonzero"/></g></g><g clip-path="url(#60e3e87cbe)"><g clip-path="url(#cc2ae007d4)"><path fill="url(#1ae88581c3)" d="M 0.109375 0 L 0.109375 586.1875 L 1266.367188 586.1875 L 1266.367188 0 Z M 0.109375 0 " fill-rule="nonzero"/></g></g><g fill="#ffffff" fill-opacity="1"><g transform="translate(110.945853, 240.633771)"><g><path d="M 73 -53.953125 C 79.09375 -52.660156 83.988281 -49.640625 87.6875 -44.890625 C 91.382812 -40.140625 93.234375 -34.71875 93.234375 -28.625 C 93.234375 -19.832031 90.160156 -12.863281 84.015625 -7.71875 C 77.867188 -2.570312 69.300781 0 58.3125 0 L 9.296875 0 L 9.296875 -105.21875 L 56.65625 -105.21875 C 67.351562 -105.21875 75.722656 -102.769531 81.765625 -97.875 C 87.804688 -92.976562 90.828125 -86.332031 90.828125 -77.9375 C 90.828125 -71.75 89.203125 -66.601562 85.953125 -62.5 C 82.710938 -58.40625 78.394531 -55.554688 73 -53.953125 Z M 34.921875 -62.65625 L 51.71875 -62.65625 C 55.90625 -62.65625 59.125 -63.578125 61.375 -65.421875 C 63.625 -67.273438 64.75 -70 64.75 -73.59375 C 64.75 -77.195312 63.625 -79.945312 61.375 -81.84375 C 59.125 -83.738281 55.90625 -84.6875 51.71875 -84.6875 L 34.921875 -84.6875 Z M 53.8125 -20.6875 C 58.101562 -20.6875 61.421875 -21.660156 63.765625 -23.609375 C 66.117188 -25.554688 67.296875 -28.378906 67.296875 -32.078125 C 67.296875 -35.773438 66.070312 -38.671875 63.625 -40.765625 C 61.175781 -42.867188 57.804688 -43.921875 53.515625 -43.921875 L 34.921875 -43.921875 L 34.921875 -20.6875 Z M 53.8125 -20.6875 "/></g></g></g><g fill="#ffffff" fill-opacity="1"><g transform="translate(209.720182, 240.633771)"><g><path d="M 88.140625 -43.171875 C 88.140625 -40.773438 87.988281 -38.273438 87.6875 -35.671875 L 29.671875 -35.671875 C 30.078125 -30.472656 31.753906 -26.5 34.703125 -23.75 C 37.648438 -21.007812 41.269531 -19.640625 45.5625 -19.640625 C 51.957031 -19.640625 56.40625 -22.335938 58.90625 -27.734375 L 86.1875 -27.734375 C 84.789062 -22.234375 82.265625 -17.285156 78.609375 -12.890625 C 74.960938 -8.492188 70.390625 -5.046875 64.890625 -2.546875 C 59.398438 -0.046875 53.257812 1.203125 46.46875 1.203125 C 38.269531 1.203125 30.972656 -0.546875 24.578125 -4.046875 C 18.179688 -7.546875 13.1875 -12.539062 9.59375 -19.03125 C 6 -25.53125 4.203125 -33.125 4.203125 -41.8125 C 4.203125 -50.507812 5.972656 -58.101562 9.515625 -64.59375 C 13.066406 -71.09375 18.039062 -76.09375 24.4375 -79.59375 C 30.832031 -83.09375 38.175781 -84.84375 46.46875 -84.84375 C 54.5625 -84.84375 61.753906 -83.140625 68.046875 -79.734375 C 74.347656 -76.335938 79.269531 -71.492188 82.8125 -65.203125 C 86.363281 -58.910156 88.140625 -51.566406 88.140625 -43.171875 Z M 61.90625 -49.90625 C 61.90625 -54.3125 60.40625 -57.8125 57.40625 -60.40625 C 54.40625 -63 50.660156 -64.296875 46.171875 -64.296875 C 41.867188 -64.296875 38.242188 -63.046875 35.296875 -60.546875 C 32.347656 -58.054688 30.523438 -54.507812 29.828125 -49.90625 Z M 61.90625 -49.90625 "/></g></g></g><g fill="#ffffff" fill-opacity="1"><g transform="translate(302.049446, 240.633771)"><g><path d="M 34.921875 -110.921875 L 34.921875 0 L 9.296875 0 L 9.296875 -110.921875 Z M 34.921875 -110.921875 "/></g></g><g transform="translate(346.26556, 240.633771)"><g><path d="M 4.203125 -41.96875 C 4.203125 -50.5625 5.820312 -58.101562 9.0625 -64.59375 C 12.3125 -71.09375 16.734375 -76.09375 22.328125 -79.59375 C 27.929688 -83.09375 34.175781 -84.84375 41.0625 -84.84375 C 46.957031 -84.84375 52.128906 -83.640625 56.578125 -81.234375 C 61.023438 -78.835938 64.445312 -75.691406 66.84375 -71.796875 L 66.84375 -83.640625 L 92.484375 -83.640625 L 92.484375 0 L 66.84375 0 L 66.84375 -11.84375 C 64.351562 -7.945312 60.882812 -4.796875 56.4375 -2.390625 C 51.988281 0.00390625 46.816406 1.203125 40.921875 1.203125 C 34.128906 1.203125 27.929688 -0.566406 22.328125 -4.109375 C 16.734375 -7.660156 12.3125 -12.707031 9.0625 -19.25 C 5.820312 -25.800781 4.203125 -33.375 4.203125 -41.96875 Z M 66.84375 -41.8125 C 66.84375 -48.207031 65.066406 -53.253906 61.515625 -56.953125 C 57.972656 -60.648438 53.65625 -62.5 48.5625 -62.5 C 43.46875 -62.5 39.144531 -60.675781 35.59375 -57.03125 C 32.050781 -53.382812 30.28125 -48.363281 30.28125 -41.96875 C 30.28125 -35.570312 32.050781 -30.5 35.59375 -26.75 C 39.144531 -23.007812 43.46875 -21.140625 48.5625 -21.140625 C 53.65625 -21.140625 57.972656 -22.984375 61.515625 -26.671875 C 65.066406 -30.367188 66.84375 -35.414062 66.84375 -41.8125 Z M 66.84375 -41.8125 "/></g></g></g><g fill="#ffffff" fill-opacity="1"><g transform="translate(448.037604, 240.633771)"><g><path d="M 22.03125 -92.328125 C 17.53125 -92.328125 13.859375 -93.648438 11.015625 -96.296875 C 8.171875 -98.953125 6.75 -102.226562 6.75 -106.125 C 6.75 -110.125 8.171875 -113.445312 11.015625 -116.09375 C 13.859375 -118.738281 17.53125 -120.0625 22.03125 -120.0625 C 26.425781 -120.0625 30.046875 -118.738281 32.890625 -116.09375 C 35.742188 -113.445312 37.171875 -110.125 37.171875 -106.125 C 37.171875 -102.226562 35.742188 -98.953125 32.890625 -96.296875 C 30.046875 -93.648438 26.425781 -92.328125 22.03125 -92.328125 Z M 34.921875 10.796875 C 34.921875 21.085938 32.320312 28.503906 27.125 33.046875 C 21.925781 37.597656 14.679688 39.875 5.390625 39.875 L -4.640625 39.875 L -4.640625 18.140625 L 1.5 18.140625 C 4.300781 18.140625 6.300781 17.585938 7.5 16.484375 C 8.695312 15.390625 9.296875 13.59375 9.296875 11.09375 L 9.296875 -83.640625 L 34.921875 -83.640625 Z M 34.921875 10.796875 "/></g></g></g><g fill="#ffffff" fill-opacity="1"><g transform="translate(492.103847, 240.633771)"><g><path d="M 4.203125 -41.96875 C 4.203125 -50.5625 5.820312 -58.101562 9.0625 -64.59375 C 12.3125 -71.09375 16.734375 -76.09375 22.328125 -79.59375 C 27.929688 -83.09375 34.175781 -84.84375 41.0625 -84.84375 C 46.957031 -84.84375 52.128906 -83.640625 56.578125 -81.234375 C 61.023438 -78.835938 64.445312 -75.691406 66.84375 -71.796875 L 66.84375 -83.640625 L 92.484375 -83.640625 L 92.484375 0 L 66.84375 0 L 66.84375 -11.84375 C 64.351562 -7.945312 60.882812 -4.796875 56.4375 -2.390625 C 51.988281 0.00390625 46.816406 1.203125 40.921875 1.203125 C 34.128906 1.203125 27.929688 -0.566406 22.328125 -4.109375 C 16.734375 -7.660156 12.3125 -12.707031 9.0625 -19.25 C 5.820312 -25.800781 4.203125 -33.375 4.203125 -41.96875 Z M 66.84375 -41.8125 C 66.84375 -48.207031 65.066406 -53.253906 61.515625 -56.953125 C 57.972656 -60.648438 53.65625 -62.5 48.5625 -62.5 C 43.46875 -62.5 39.144531 -60.675781 35.59375 -57.03125 C 32.050781 -53.382812 30.28125 -48.363281 30.28125 -41.96875 C 30.28125 -35.570312 32.050781 -30.5 35.59375 -26.75 C 39.144531 -23.007812 43.46875 -21.140625 48.5625 -21.140625 C 53.65625 -21.140625 57.972656 -22.984375 61.515625 -26.671875 C 65.066406 -30.367188 66.84375 -35.414062 66.84375 -41.8125 Z M 66.84375 -41.8125 "/></g></g></g><g fill="#ffffff" fill-opacity="1"><g transform="translate(593.875867, 240.633771)"><g><path d="M 34.921875 -69.703125 C 37.921875 -74.296875 41.664062 -77.914062 46.15625 -80.5625 C 50.65625 -83.207031 55.65625 -84.53125 61.15625 -84.53125 L 61.15625 -57.40625 L 54.109375 -57.40625 C 47.710938 -57.40625 42.914062 -56.03125 39.71875 -53.28125 C 36.519531 -50.539062 34.921875 -45.722656 34.921875 -38.828125 L 34.921875 0 L 9.296875 0 L 9.296875 -83.640625 L 34.921875 -83.640625 Z M 34.921875 -69.703125 "/></g></g></g><g fill="#ffffff" fill-opacity="1"><g transform="translate(110.945853, 450.472959)"><g><path d="M 79.140625 -71.953125 C 77.242188 -75.441406 74.519531 -78.109375 70.96875 -79.953125 C 67.425781 -81.804688 63.253906 -82.734375 58.453125 -82.734375 C 50.160156 -82.734375 43.515625 -80.007812 38.515625 -74.5625 C 33.523438 -69.125 31.03125 -61.859375 31.03125 -52.765625 C 31.03125 -43.066406 33.648438 -35.492188 38.890625 -30.046875 C 44.140625 -24.609375 51.363281 -21.890625 60.5625 -21.890625 C 66.851562 -21.890625 72.171875 -23.488281 76.515625 -26.6875 C 80.867188 -29.882812 84.039062 -34.476562 86.03125 -40.46875 L 53.515625 -40.46875 L 53.515625 -59.359375 L 109.265625 -59.359375 L 109.265625 -35.53125 C 107.367188 -29.132812 104.144531 -23.1875 99.59375 -17.6875 C 95.050781 -12.1875 89.28125 -7.738281 82.28125 -4.34375 C 75.289062 -0.945312 67.398438 0.75 58.609375 0.75 C 48.210938 0.75 38.941406 -1.519531 30.796875 -6.0625 C 22.660156 -10.613281 16.316406 -16.9375 11.765625 -25.03125 C 7.222656 -33.125 4.953125 -42.367188 4.953125 -52.765625 C 4.953125 -63.148438 7.222656 -72.414062 11.765625 -80.5625 C 16.316406 -88.707031 22.640625 -95.050781 30.734375 -99.59375 C 38.828125 -104.144531 48.066406 -106.421875 58.453125 -106.421875 C 71.046875 -106.421875 81.664062 -103.375 90.3125 -97.28125 C 98.957031 -91.1875 104.675781 -82.742188 107.46875 -71.953125 Z M 79.140625 -71.953125 "/></g></g></g><g fill="#ffffff" fill-opacity="1"><g transform="translate(225.158356, 450.472959)"><g><path d="M 88.140625 -43.171875 C 88.140625 -40.773438 87.988281 -38.273438 87.6875 -35.671875 L 29.671875 -35.671875 C 30.078125 -30.472656 31.753906 -26.5 34.703125 -23.75 C 37.648438 -21.007812 41.269531 -19.640625 45.5625 -19.640625 C 51.957031 -19.640625 56.40625 -22.335938 58.90625 -27.734375 L 86.1875 -27.734375 C 84.789062 -22.234375 82.265625 -17.285156 78.609375 -12.890625 C 74.960938 -8.492188 70.390625 -5.046875 64.890625 -2.546875 C 59.398438 -0.046875 53.257812 1.203125 46.46875 1.203125 C 38.269531 1.203125 30.972656 -0.546875 24.578125 -4.046875 C 18.179688 -7.546875 13.1875 -12.539062 9.59375 -19.03125 C 6 -25.53125 4.203125 -33.125 4.203125 -41.8125 C 4.203125 -50.507812 5.972656 -58.101562 9.515625 -64.59375 C 13.066406 -71.09375 18.039062 -76.09375 24.4375 -79.59375 C 30.832031 -83.09375 38.175781 -84.84375 46.46875 -84.84375 C 54.5625 -84.84375 61.753906 -83.140625 68.046875 -79.734375 C 74.347656 -76.335938 79.269531 -71.492188 82.8125 -65.203125 C 86.363281 -58.910156 88.140625 -51.566406 88.140625 -43.171875 Z M 61.90625 -49.90625 C 61.90625 -54.3125 60.40625 -57.8125 57.40625 -60.40625 C 54.40625 -63 50.660156 -64.296875 46.171875 -64.296875 C 41.867188 -64.296875 38.242188 -63.046875 35.296875 -60.546875 C 32.347656 -58.054688 30.523438 -54.507812 29.828125 -49.90625 Z M 61.90625 -49.90625 "/></g></g></g><g fill="#ffffff" fill-opacity="1"><g transform="translate(317.487619, 450.472959)"><g><path d="M 47.359375 1.203125 C 39.171875 1.203125 31.800781 -0.546875 25.25 -4.046875 C 18.707031 -7.546875 13.5625 -12.539062 9.8125 -19.03125 C 6.070312 -25.53125 4.203125 -33.125 4.203125 -41.8125 C 4.203125 -50.40625 6.097656 -57.972656 9.890625 -64.515625 C 13.691406 -71.066406 18.890625 -76.09375 25.484375 -79.59375 C 32.078125 -83.09375 39.472656 -84.84375 47.671875 -84.84375 C 55.859375 -84.84375 63.25 -83.09375 69.84375 -79.59375 C 76.4375 -76.09375 81.632812 -71.066406 85.4375 -64.515625 C 89.238281 -57.972656 91.140625 -50.40625 91.140625 -41.8125 C 91.140625 -33.21875 89.210938 -25.648438 85.359375 -19.109375 C 81.515625 -12.566406 76.269531 -7.546875 69.625 -4.046875 C 62.976562 -0.546875 55.554688 1.203125 47.359375 1.203125 Z M 47.359375 -20.984375 C 52.253906 -20.984375 56.425781 -22.78125 59.875 -26.375 C 63.320312 -29.976562 65.046875 -35.125 65.046875 -41.8125 C 65.046875 -48.507812 63.375 -53.65625 60.03125 -57.25 C 56.6875 -60.851562 52.566406 -62.65625 47.671875 -62.65625 C 42.671875 -62.65625 38.519531 -60.878906 35.21875 -57.328125 C 31.925781 -53.785156 30.28125 -48.613281 30.28125 -41.8125 C 30.28125 -35.125 31.898438 -29.976562 35.140625 -26.375 C 38.390625 -22.78125 42.460938 -20.984375 47.359375 -20.984375 Z M 47.359375 -20.984375 "/></g></g></g><g fill="#ffffff" fill-opacity="1"><g transform="translate(412.964468, 450.472959)"><g><path d="M 41.0625 -84.84375 C 46.957031 -84.84375 52.128906 -83.640625 56.578125 -81.234375 C 61.023438 -78.835938 64.445312 -75.691406 66.84375 -71.796875 L 66.84375 -83.640625 L 92.484375 -83.640625 L 92.484375 -0.15625 C 92.484375 7.539062 90.957031 14.507812 87.90625 20.75 C 84.863281 27 80.21875 31.972656 73.96875 35.671875 C 67.726562 39.367188 59.957031 41.21875 50.65625 41.21875 C 38.269531 41.21875 28.226562 38.296875 20.53125 32.453125 C 12.84375 26.609375 8.445312 18.6875 7.34375 8.6875 L 32.671875 8.6875 C 33.472656 11.882812 35.375 14.40625 38.375 16.25 C 41.375 18.101562 45.070312 19.03125 49.46875 19.03125 C 54.757812 19.03125 58.976562 17.503906 62.125 14.453125 C 65.269531 11.410156 66.84375 6.539062 66.84375 -0.15625 L 66.84375 -11.984375 C 64.351562 -8.085938 60.90625 -4.914062 56.5 -2.46875 C 52.101562 -0.0195312 46.957031 1.203125 41.0625 1.203125 C 34.175781 1.203125 27.929688 -0.566406 22.328125 -4.109375 C 16.734375 -7.660156 12.3125 -12.707031 9.0625 -19.25 C 5.820312 -25.800781 4.203125 -33.375 4.203125 -41.96875 C 4.203125 -50.5625 5.820312 -58.101562 9.0625 -64.59375 C 12.3125 -71.09375 16.734375 -76.09375 22.328125 -79.59375 C 27.929688 -83.09375 34.175781 -84.84375 41.0625 -84.84375 Z M 66.84375 -41.8125 C 66.84375 -48.207031 65.066406 -53.253906 61.515625 -56.953125 C 57.972656 -60.648438 53.65625 -62.5 48.5625 -62.5 C 43.46875 -62.5 39.144531 -60.675781 35.59375 -57.03125 C 32.050781 -53.382812 30.28125 -48.363281 30.28125 -41.96875 C 30.28125 -35.570312 32.050781 -30.5 35.59375 -26.75 C 39.144531 -23.007812 43.46875 -21.140625 48.5625 -21.140625 C 53.65625 -21.140625 57.972656 -22.984375 61.515625 -26.671875 C 65.066406 -30.367188 66.84375 -35.414062 66.84375 -41.8125 Z M 66.84375 -41.8125 "/></g></g></g><g fill="#ffffff" fill-opacity="1"><g transform="translate(514.736488, 450.472959)"><g><path d="M 34.921875 -69.703125 C 37.921875 -74.296875 41.664062 -77.914062 46.15625 -80.5625 C 50.65625 -83.207031 55.65625 -84.53125 61.15625 -84.53125 L 61.15625 -57.40625 L 54.109375 -57.40625 C 47.710938 -57.40625 42.914062 -56.03125 39.71875 -53.28125 C 36.519531 -50.539062 34.921875 -45.722656 34.921875 -38.828125 L 34.921875 0 L 9.296875 0 L 9.296875 -83.640625 L 34.921875 -83.640625 Z M 34.921875 -69.703125 "/></g></g></g><g fill="#ffffff" fill-opacity="1"><g transform="translate(578.887353, 450.472959)"><g><path d="M 4.203125 -41.96875 C 4.203125 -50.5625 5.820312 -58.101562 9.0625 -64.59375 C 12.3125 -71.09375 16.734375 -76.09375 22.328125 -79.59375 C 27.929688 -83.09375 34.175781 -84.84375 41.0625 -84.84375 C 46.957031 -84.84375 52.128906 -83.640625 56.578125 -81.234375 C 61.023438 -78.835938 64.445312 -75.691406 66.84375 -71.796875 L 66.84375 -83.640625 L 92.484375 -83.640625 L 92.484375 0 L 66.84375 0 L 66.84375 -11.84375 C 64.351562 -7.945312 60.882812 -4.796875 56.4375 -2.390625 C 51.988281 0.00390625 46.816406 1.203125 40.921875 1.203125 C 34.128906 1.203125 27.929688 -0.566406 22.328125 -4.109375 C 16.734375 -7.660156 12.3125 -12.707031 9.0625 -19.25 C 5.820312 -25.800781 4.203125 -33.375 4.203125 -41.96875 Z M 66.84375 -41.8125 C 66.84375 -48.207031 65.066406 -53.253906 61.515625 -56.953125 C 57.972656 -60.648438 53.65625 -62.5 48.5625 -62.5 C 43.46875 -62.5 39.144531 -60.675781 35.59375 -57.03125 C 32.050781 -53.382812 30.28125 -48.363281 30.28125 -41.96875 C 30.28125 -35.570312 32.050781 -30.5 35.59375 -26.75 C 39.144531 -23.007812 43.46875 -21.140625 48.5625 -21.140625 C 53.65625 -21.140625 57.972656 -22.984375 61.515625 -26.671875 C 65.066406 -30.367188 66.84375 -35.414062 66.84375 -41.8125 Z M 66.84375 -41.8125 "/></g></g></g><g fill="#ffffff" fill-opacity="1"><g transform="translate(680.659396, 450.472959)"><g><path d="M 51.265625 -62.359375 L 37.46875 -62.359375 L 37.46875 0 L 11.84375 0 L 11.84375 -62.359375 L 2.546875 -62.359375 L 2.546875 -83.640625 L 11.84375 -83.640625 L 11.84375 -86.03125 C 11.84375 -96.320312 14.789062 -104.140625 20.6875 -109.484375 C 26.582031 -114.835938 35.222656 -117.515625 46.609375 -117.515625 C 48.515625 -117.515625 49.914062 -117.460938 50.8125 -117.359375 L 50.8125 -95.625 C 45.914062 -95.925781 42.46875 -95.226562 40.46875 -93.53125 C 38.46875 -91.832031 37.46875 -88.785156 37.46875 -84.390625 L 37.46875 -83.640625 L 51.265625 -83.640625 Z M 51.265625 -62.359375 "/></g></g><g transform="translate(734.618045, 450.472959)"><g><path d="M 22.1875 -92.328125 C 17.6875 -92.328125 14.007812 -93.648438 11.15625 -96.296875 C 8.3125 -98.953125 6.890625 -102.226562 6.890625 -106.125 C 6.890625 -110.125 8.3125 -113.445312 11.15625 -116.09375 C 14.007812 -118.738281 17.6875 -120.0625 22.1875 -120.0625 C 26.582031 -120.0625 30.203125 -118.738281 33.046875 -116.09375 C 35.898438 -113.445312 37.328125 -110.125 37.328125 -106.125 C 37.328125 -102.226562 35.898438 -98.953125 33.046875 -96.296875 C 30.203125 -93.648438 26.582031 -92.328125 22.1875 -92.328125 Z M 34.921875 -83.640625 L 34.921875 0 L 9.296875 0 L 9.296875 -83.640625 Z M 34.921875 -83.640625 "/></g></g></g><g clip-path="url(#9eeaf42c9d)"><g clip-path="url(#01c40fbba6)"><g clip-path="url(#ea17139b95)"><path fill="#4bc3a0" d="M 1117.214844 265.949219 C 1116.960938 265.226562 1116.546875 264.613281 1115.976562 264.105469 C 1115.402344 263.597656 1114.742188 263.265625 1113.996094 263.101562 L 1070.890625 253.632812 C 1070.523438 253.550781 1070.152344 253.519531 1069.777344 253.53125 C 1069.402344 253.546875 1069.035156 253.609375 1068.671875 253.71875 C 1068.3125 253.824219 1067.972656 253.976562 1067.652344 254.171875 C 1067.328125 254.367188 1067.039062 254.601562 1066.777344 254.871094 C 1066.515625 255.140625 1066.289062 255.441406 1066.105469 255.765625 C 1065.917969 256.09375 1065.777344 256.441406 1065.679688 256.804688 C 1065.585938 257.167969 1065.535156 257.535156 1065.53125 257.914062 C 1065.527344 258.289062 1065.574219 258.660156 1065.667969 259.023438 L 1070.5 278.160156 C 1070.703125 278.96875 1071.105469 279.664062 1071.707031 280.246094 C 1072.308594 280.828125 1073.015625 281.210938 1073.832031 281.386719 L 1099.695312 287.070312 C 1100.511719 287.25 1101.3125 287.199219 1102.101562 286.921875 C 1102.890625 286.644531 1103.546875 286.183594 1104.074219 285.535156 L 1116.480469 270.183594 C 1116.960938 269.589844 1117.265625 268.914062 1117.398438 268.160156 C 1117.527344 267.410156 1117.464844 266.671875 1117.214844 265.949219 Z M 1117.214844 265.949219 " fill-opacity="1" fill-rule="nonzero"/></g></g></g><g clip-path="url(#461d578b15)"><g clip-path="url(#c2eefb43e2)"><g clip-path="url(#2677d4e120)"><path fill="#4bc3a0" d="M 1068.75 271.234375 L 1108.5625 279.980469 L 1116.480469 270.183594 C 1116.71875 269.894531 1116.914062 269.574219 1117.070312 269.234375 C 1117.222656 268.890625 1117.332031 268.535156 1117.398438 268.164062 C 1117.460938 267.792969 1117.480469 267.417969 1117.449219 267.042969 C 1117.417969 266.667969 1117.339844 266.304688 1117.214844 265.949219 C 1117.089844 265.59375 1116.921875 265.261719 1116.710938 264.949219 C 1116.503906 264.636719 1116.257812 264.355469 1115.976562 264.105469 C 1115.695312 263.855469 1115.386719 263.648438 1115.050781 263.476562 C 1114.714844 263.304688 1114.363281 263.179688 1113.996094 263.101562 L 1070.890625 253.632812 C 1070.523438 253.550781 1070.152344 253.519531 1069.777344 253.53125 C 1069.402344 253.546875 1069.035156 253.609375 1068.671875 253.71875 C 1068.3125 253.824219 1067.972656 253.976562 1067.652344 254.171875 C 1067.328125 254.367188 1067.039062 254.601562 1066.777344 254.871094 C 1066.515625 255.140625 1066.289062 255.441406 1066.105469 255.765625 C 1065.917969 256.09375 1065.777344 256.441406 1065.679688 256.804688 C 1065.585938 257.167969 1065.535156 257.535156 1065.53125 257.914062 C 1065.527344 258.289062 1065.574219 258.660156 1065.667969 259.023438 Z M 1068.75 271.234375 " fill-opacity="1" fill-rule="nonzero"/></g></g></g><g clip-path="url(#410f6e6f4a)"><g clip-path="url(#f18a3a9b80)"><g clip-path="url(#d8f23906c9)"><path fill="#4bc3a0" d="M 1182.660156 156.1875 C 1181.765625 160.277344 1180.496094 164.246094 1178.84375 168.089844 C 1177.195312 171.9375 1175.195312 175.59375 1172.847656 179.058594 C 1170.5 182.527344 1167.847656 185.738281 1164.886719 188.699219 C 1161.925781 191.660156 1158.714844 194.3125 1155.246094 196.660156 C 1150.496094 199.828125 1146.261719 203.578125 1142.539062 207.90625 C 1138.820312 212.238281 1135.75 216.992188 1133.335938 222.164062 C 1131.683594 225.714844 1130.4375 229.402344 1129.59375 233.226562 L 1129.242188 234.820312 C 1129.179688 235.101562 1129.089844 235.378906 1128.972656 235.640625 C 1128.859375 235.90625 1128.714844 236.160156 1128.550781 236.394531 C 1128.382812 236.632812 1128.195312 236.851562 1127.988281 237.050781 C 1127.777344 237.253906 1127.554688 237.429688 1127.308594 237.585938 C 1127.066406 237.742188 1126.808594 237.875 1126.539062 237.980469 C 1126.269531 238.085938 1125.992188 238.164062 1125.707031 238.214844 C 1125.421875 238.265625 1125.136719 238.289062 1124.84375 238.285156 C 1124.554688 238.277344 1124.269531 238.246094 1123.988281 238.183594 L 1072.261719 226.824219 C 1071.980469 226.761719 1071.707031 226.671875 1071.441406 226.554688 C 1071.175781 226.4375 1070.925781 226.296875 1070.6875 226.128906 C 1070.449219 225.964844 1070.230469 225.777344 1070.03125 225.566406 C 1069.832031 225.359375 1069.652344 225.132812 1069.496094 224.890625 C 1069.339844 224.644531 1069.210938 224.386719 1069.101562 224.117188 C 1068.996094 223.847656 1068.917969 223.570312 1068.867188 223.285156 C 1068.816406 223 1068.792969 222.714844 1068.800781 222.425781 C 1068.804688 222.136719 1068.835938 221.847656 1068.898438 221.566406 L 1069.25 219.972656 C 1070.089844 216.152344 1070.535156 212.289062 1070.574219 208.378906 C 1070.585938 202.730469 1069.824219 197.1875 1068.285156 191.75 C 1066.742188 186.3125 1064.488281 181.195312 1061.515625 176.386719 C 1060.40625 174.566406 1059.382812 172.691406 1058.453125 170.769531 C 1057.523438 168.847656 1056.6875 166.882812 1055.949219 164.878906 C 1055.207031 162.878906 1054.566406 160.84375 1054.023438 158.777344 C 1053.480469 156.710938 1053.039062 154.625 1052.695312 152.515625 C 1052.355469 150.40625 1052.117188 148.289062 1051.980469 146.15625 C 1051.84375 144.027344 1051.8125 141.890625 1051.882812 139.757812 C 1051.953125 137.625 1052.128906 135.496094 1052.40625 133.378906 C 1052.679688 131.261719 1053.058594 129.164062 1053.539062 127.082031 C 1054.019531 125 1054.597656 122.945312 1055.277344 120.921875 C 1055.957031 118.898438 1056.734375 116.910156 1057.605469 114.960938 C 1058.476562 113.011719 1059.4375 111.105469 1060.496094 109.25 C 1061.550781 107.394531 1062.691406 105.59375 1063.921875 103.847656 C 1065.152344 102.101562 1066.464844 100.417969 1067.859375 98.800781 C 1069.25 97.179688 1070.71875 95.632812 1072.261719 94.15625 C 1073.804688 92.679688 1075.414062 91.28125 1077.09375 89.960938 C 1078.773438 88.640625 1080.511719 87.402344 1082.308594 86.25 C 1084.109375 85.097656 1085.957031 84.035156 1087.859375 83.0625 C 1089.757812 82.089844 1091.703125 81.210938 1093.6875 80.425781 C 1095.675781 79.640625 1097.695312 78.953125 1099.746094 78.363281 C 1101.800781 77.773438 1103.878906 77.285156 1105.976562 76.898438 C 1108.078125 76.507812 1110.191406 76.222656 1112.320312 76.039062 C 1114.449219 75.855469 1116.578125 75.777344 1118.714844 75.800781 C 1120.851562 75.820312 1122.980469 75.949219 1125.101562 76.175781 C 1127.226562 76.40625 1129.332031 76.738281 1131.425781 77.171875 C 1133.515625 77.605469 1135.582031 78.136719 1137.621094 78.769531 C 1139.660156 79.402344 1141.664062 80.132812 1143.632812 80.960938 C 1145.605469 81.789062 1147.527344 82.710938 1149.40625 83.722656 C 1151.289062 84.738281 1153.113281 85.839844 1154.886719 87.03125 C 1156.660156 88.222656 1158.371094 89.496094 1160.019531 90.851562 C 1161.671875 92.207031 1163.25 93.640625 1164.761719 95.148438 C 1166.273438 96.660156 1167.707031 98.238281 1169.066406 99.886719 C 1170.421875 101.535156 1171.699219 103.246094 1172.890625 105.015625 C 1174.148438 106.863281 1175.308594 108.769531 1176.371094 110.734375 C 1177.433594 112.703125 1178.390625 114.714844 1179.25 116.78125 C 1180.105469 118.84375 1180.851562 120.945312 1181.496094 123.085938 C 1182.136719 125.226562 1182.664062 127.394531 1183.085938 129.589844 C 1183.503906 131.785156 1183.808594 133.992188 1184.003906 136.21875 C 1184.195312 138.445312 1184.273438 140.675781 1184.238281 142.910156 C 1184.203125 145.144531 1184.054688 147.371094 1183.789062 149.589844 C 1183.527344 151.808594 1183.148438 154.007812 1182.660156 156.1875 Z M 1182.660156 156.1875 " fill-opacity="1" fill-rule="nonzero"/></g></g></g><g clip-path="url(#978fbfde55)"><g clip-path="url(#037be8352a)"><g clip-path="url(#e7b573d436)"><path fill="#4bc3a0" d="M 1085.191406 229.664062 C 1084.910156 229.601562 1084.636719 229.511719 1084.371094 229.394531 C 1084.105469 229.28125 1083.855469 229.140625 1083.617188 228.972656 C 1083.378906 228.808594 1083.160156 228.621094 1082.957031 228.410156 C 1082.757812 228.203125 1082.578125 227.976562 1082.421875 227.730469 C 1082.265625 227.488281 1082.136719 227.230469 1082.03125 226.960938 C 1081.925781 226.691406 1081.847656 226.414062 1081.796875 226.128906 C 1081.746094 225.84375 1081.722656 225.554688 1081.726562 225.265625 C 1081.734375 224.976562 1081.765625 224.691406 1081.828125 224.40625 L 1091.011719 182.609375 L 1079.933594 154.203125 C 1079.828125 153.933594 1079.746094 153.65625 1079.691406 153.367188 C 1079.640625 153.082031 1079.613281 152.792969 1079.617188 152.5 C 1079.625 152.210938 1079.65625 151.921875 1079.71875 151.636719 C 1079.777344 151.351562 1079.867188 151.074219 1079.984375 150.808594 C 1080.097656 150.539062 1080.238281 150.285156 1080.40625 150.046875 C 1080.570312 149.808594 1080.761719 149.585938 1080.96875 149.382812 C 1081.179688 149.183594 1081.40625 149.003906 1081.652344 148.84375 C 1081.898438 148.6875 1082.15625 148.558594 1082.429688 148.449219 C 1082.699219 148.34375 1082.980469 148.265625 1083.265625 148.214844 C 1083.554688 148.164062 1083.84375 148.144531 1084.132812 148.152344 C 1084.425781 148.15625 1084.714844 148.191406 1084.996094 148.257812 C 1085.28125 148.320312 1085.558594 148.410156 1085.824219 148.53125 C 1086.089844 148.648438 1086.34375 148.792969 1086.582031 148.960938 C 1086.816406 149.128906 1087.039062 149.316406 1087.238281 149.53125 C 1087.4375 149.742188 1087.617188 149.972656 1087.769531 150.21875 C 1087.925781 150.464844 1088.054688 150.726562 1088.15625 150.996094 L 1099.71875 180.644531 C 1100.042969 181.476562 1100.109375 182.328125 1099.917969 183.195312 L 1090.449219 226.300781 C 1090.386719 226.582031 1090.300781 226.855469 1090.183594 227.121094 C 1090.066406 227.386719 1089.925781 227.640625 1089.761719 227.878906 C 1089.59375 228.117188 1089.40625 228.335938 1089.199219 228.535156 C 1088.988281 228.734375 1088.761719 228.914062 1088.519531 229.070312 C 1088.273438 229.226562 1088.015625 229.359375 1087.746094 229.464844 C 1087.476562 229.570312 1087.199219 229.648438 1086.914062 229.699219 C 1086.628906 229.75 1086.34375 229.769531 1086.050781 229.765625 C 1085.761719 229.761719 1085.476562 229.726562 1085.191406 229.664062 Z M 1085.191406 229.664062 " fill-opacity="1" fill-rule="nonzero"/></g></g></g><g clip-path="url(#1de7c5bbbe)"><g clip-path="url(#f6abee83d4)"><g clip-path="url(#b45d7d511b)"><path fill="#4bc3a0" d="M 1111.054688 235.34375 C 1110.773438 235.28125 1110.5 235.191406 1110.234375 235.078125 C 1109.96875 234.960938 1109.714844 234.820312 1109.476562 234.652344 C 1109.242188 234.488281 1109.019531 234.300781 1108.820312 234.089844 C 1108.621094 233.882812 1108.441406 233.65625 1108.285156 233.414062 C 1108.128906 233.167969 1107.996094 232.910156 1107.890625 232.640625 C 1107.785156 232.371094 1107.707031 232.09375 1107.65625 231.808594 C 1107.605469 231.523438 1107.585938 231.234375 1107.589844 230.945312 C 1107.597656 230.65625 1107.628906 230.371094 1107.691406 230.085938 L 1117.160156 186.984375 C 1117.351562 186.113281 1117.765625 185.371094 1118.410156 184.75 L 1141.332031 162.675781 C 1141.539062 162.476562 1141.765625 162.300781 1142.011719 162.148438 C 1142.253906 161.996094 1142.511719 161.867188 1142.777344 161.761719 C 1143.046875 161.660156 1143.324219 161.582031 1143.609375 161.535156 C 1143.890625 161.484375 1144.179688 161.464844 1144.464844 161.472656 C 1144.753906 161.476562 1145.039062 161.511719 1145.320312 161.574219 C 1145.601562 161.636719 1145.875 161.726562 1146.136719 161.84375 C 1146.402344 161.957031 1146.652344 162.097656 1146.886719 162.261719 C 1147.125 162.429688 1147.339844 162.613281 1147.542969 162.820312 C 1147.742188 163.027344 1147.917969 163.253906 1148.074219 163.496094 C 1148.230469 163.738281 1148.363281 163.992188 1148.46875 164.261719 C 1148.574219 164.53125 1148.652344 164.804688 1148.703125 165.089844 C 1148.753906 165.371094 1148.78125 165.65625 1148.777344 165.945312 C 1148.769531 166.234375 1148.738281 166.519531 1148.679688 166.800781 C 1148.621094 167.082031 1148.53125 167.355469 1148.417969 167.621094 C 1148.304688 167.886719 1148.167969 168.136719 1148.003906 168.375 C 1147.84375 168.613281 1147.660156 168.832031 1147.453125 169.035156 L 1125.492188 190.179688 L 1116.3125 231.980469 C 1116.25 232.261719 1116.160156 232.539062 1116.046875 232.804688 C 1115.929688 233.070312 1115.789062 233.320312 1115.621094 233.558594 C 1115.457031 233.796875 1115.269531 234.015625 1115.058594 234.214844 C 1114.851562 234.417969 1114.625 234.59375 1114.378906 234.75 C 1114.136719 234.90625 1113.878906 235.039062 1113.609375 235.144531 C 1113.339844 235.25 1113.0625 235.328125 1112.777344 235.378906 C 1112.492188 235.429688 1112.203125 235.453125 1111.914062 235.445312 C 1111.625 235.441406 1111.339844 235.40625 1111.054688 235.34375 Z M 1111.054688 235.34375 " fill-opacity="1" fill-rule="nonzero"/></g></g></g><g clip-path="url(#e9a3fc4f7b)"><g clip-path="url(#5604030105)"><g clip-path="url(#28ced14cb5)"><path fill="#4bc3a0" d="M 1069.84375 217.257812 L 1130.191406 230.511719 C 1130.472656 230.574219 1130.746094 230.660156 1131.011719 230.777344 C 1131.277344 230.894531 1131.53125 231.035156 1131.769531 231.199219 C 1132.003906 231.367188 1132.226562 231.554688 1132.425781 231.761719 C 1132.625 231.972656 1132.804688 232.199219 1132.960938 232.441406 C 1133.117188 232.6875 1133.25 232.945312 1133.355469 233.214844 C 1133.460938 233.484375 1133.539062 233.761719 1133.589844 234.046875 C 1133.640625 234.332031 1133.660156 234.617188 1133.65625 234.910156 C 1133.648438 235.199219 1133.617188 235.484375 1133.554688 235.769531 L 1125.980469 270.25 C 1125.917969 270.535156 1125.828125 270.808594 1125.710938 271.074219 C 1125.597656 271.339844 1125.457031 271.589844 1125.289062 271.828125 C 1125.125 272.066406 1124.9375 272.285156 1124.726562 272.484375 C 1124.519531 272.6875 1124.292969 272.863281 1124.046875 273.019531 C 1123.804688 273.175781 1123.546875 273.308594 1123.277344 273.414062 C 1123.007812 273.519531 1122.730469 273.597656 1122.445312 273.648438 C 1122.160156 273.699219 1121.871094 273.722656 1121.582031 273.714844 C 1121.292969 273.710938 1121.007812 273.675781 1120.722656 273.613281 L 1060.378906 260.359375 C 1060.09375 260.296875 1059.820312 260.207031 1059.554688 260.09375 C 1059.289062 259.976562 1059.039062 259.835938 1058.800781 259.667969 C 1058.5625 259.503906 1058.34375 259.316406 1058.144531 259.105469 C 1057.941406 258.898438 1057.761719 258.671875 1057.605469 258.429688 C 1057.449219 258.183594 1057.320312 257.925781 1057.214844 257.65625 C 1057.109375 257.386719 1057.03125 257.109375 1056.980469 256.824219 C 1056.929688 256.539062 1056.90625 256.25 1056.914062 255.960938 C 1056.917969 255.671875 1056.953125 255.386719 1057.015625 255.101562 L 1064.589844 220.621094 C 1064.648438 220.335938 1064.738281 220.0625 1064.855469 219.796875 C 1064.972656 219.53125 1065.113281 219.28125 1065.277344 219.042969 C 1065.445312 218.804688 1065.632812 218.585938 1065.839844 218.382812 C 1066.050781 218.183594 1066.277344 218.003906 1066.519531 217.847656 C 1066.765625 217.691406 1067.019531 217.5625 1067.289062 217.457031 C 1067.5625 217.351562 1067.839844 217.273438 1068.125 217.222656 C 1068.410156 217.171875 1068.695312 217.148438 1068.984375 217.152344 C 1069.277344 217.160156 1069.5625 217.195312 1069.84375 217.257812 Z M 1069.84375 217.257812 " fill-opacity="1" fill-rule="nonzero"/></g></g></g><g clip-path="url(#5a2e19ac81)"><g clip-path="url(#1165f997e8)"><g clip-path="url(#9c5d1d93e3)"><path fill="#4bc3a0" d="M 1063.640625 224.929688 L 1132.605469 240.078125 L 1130.714844 248.699219 L 1061.746094 233.550781 Z M 1063.640625 224.929688 " fill-opacity="1" fill-rule="nonzero"/></g></g></g><g clip-path="url(#d729132233)"><g clip-path="url(#4a58709c22)"><g clip-path="url(#d93a1b54ab)"><path fill="#4bc3a0" d="M 1110.632812 257.84375 C 1110.570312 258.125 1110.480469 258.398438 1110.363281 258.664062 C 1110.246094 258.929688 1110.105469 259.179688 1109.9375 259.417969 C 1109.773438 259.65625 1109.585938 259.875 1109.375 260.074219 C 1109.167969 260.273438 1108.941406 260.453125 1108.699219 260.609375 C 1108.453125 260.765625 1108.195312 260.894531 1107.925781 261 C 1107.65625 261.105469 1107.378906 261.1875 1107.09375 261.238281 C 1106.808594 261.289062 1106.523438 261.3125 1106.234375 261.304688 C 1105.945312 261.300781 1105.65625 261.269531 1105.375 261.207031 L 1057.960938 250.792969 L 1059.855469 242.171875 L 1107.269531 252.585938 C 1107.550781 252.648438 1107.824219 252.738281 1108.089844 252.855469 C 1108.355469 252.972656 1108.605469 253.113281 1108.84375 253.277344 C 1109.082031 253.445312 1109.300781 253.632812 1109.5 253.839844 C 1109.699219 254.050781 1109.878906 254.277344 1110.035156 254.519531 C 1110.191406 254.765625 1110.320312 255.019531 1110.425781 255.289062 C 1110.53125 255.558594 1110.613281 255.835938 1110.664062 256.121094 C 1110.714844 256.40625 1110.738281 256.695312 1110.730469 256.984375 C 1110.726562 257.273438 1110.695312 257.558594 1110.632812 257.84375 Z M 1110.632812 257.84375 " fill-opacity="1" fill-rule="nonzero"/></g></g></g><g clip-path="url(#447814bc8a)"><g clip-path="url(#9ab1a6559d)"><g clip-path="url(#e2db3d6818)"><path fill="#4bc3a0" d="M 1134.101562 68.710938 C 1133.816406 68.648438 1133.542969 68.558594 1133.277344 68.441406 C 1133.011719 68.324219 1132.761719 68.183594 1132.523438 68.019531 C 1132.285156 67.855469 1132.066406 67.667969 1131.867188 67.457031 C 1131.664062 67.25 1131.484375 67.023438 1131.332031 66.777344 C 1131.175781 66.535156 1131.042969 66.277344 1130.9375 66.007812 C 1130.832031 65.738281 1130.753906 65.460938 1130.703125 65.175781 C 1130.652344 64.890625 1130.628906 64.601562 1130.636719 64.3125 C 1130.640625 64.023438 1130.675781 63.734375 1130.738281 63.453125 L 1134.523438 46.210938 C 1134.585938 45.929688 1134.675781 45.652344 1134.792969 45.386719 C 1134.90625 45.121094 1135.046875 44.871094 1135.214844 44.632812 C 1135.378906 44.394531 1135.566406 44.175781 1135.777344 43.976562 C 1135.984375 43.773438 1136.210938 43.597656 1136.457031 43.441406 C 1136.699219 43.285156 1136.957031 43.152344 1137.226562 43.046875 C 1137.496094 42.941406 1137.773438 42.863281 1138.058594 42.8125 C 1138.34375 42.761719 1138.632812 42.738281 1138.921875 42.746094 C 1139.210938 42.75 1139.5 42.785156 1139.78125 42.847656 C 1140.0625 42.910156 1140.339844 43 1140.605469 43.113281 C 1140.871094 43.230469 1141.121094 43.371094 1141.359375 43.539062 C 1141.597656 43.703125 1141.816406 43.890625 1142.015625 44.101562 C 1142.21875 44.308594 1142.394531 44.535156 1142.550781 44.78125 C 1142.707031 45.023438 1142.839844 45.28125 1142.945312 45.550781 C 1143.050781 45.820312 1143.128906 46.097656 1143.179688 46.382812 C 1143.230469 46.667969 1143.253906 46.957031 1143.246094 47.246094 C 1143.242188 47.535156 1143.207031 47.820312 1143.144531 48.105469 L 1139.359375 65.347656 C 1139.296875 65.628906 1139.207031 65.902344 1139.089844 66.167969 C 1138.972656 66.433594 1138.832031 66.6875 1138.667969 66.921875 C 1138.5 67.160156 1138.3125 67.378906 1138.105469 67.582031 C 1137.898438 67.78125 1137.671875 67.960938 1137.425781 68.117188 C 1137.183594 68.273438 1136.925781 68.402344 1136.65625 68.507812 C 1136.386719 68.613281 1136.109375 68.691406 1135.824219 68.742188 C 1135.535156 68.792969 1135.25 68.816406 1134.960938 68.8125 C 1134.671875 68.804688 1134.382812 68.773438 1134.101562 68.710938 Z M 1134.101562 68.710938 " fill-opacity="1" fill-rule="nonzero"/></g></g></g><g clip-path="url(#5fbaeccb66)"><g clip-path="url(#e207b13e2b)"><g clip-path="url(#fbdd8aba13)"><path fill="#4bc3a0" d="M 1074.246094 79.382812 C 1073.054688 79.125 1072.132812 78.480469 1071.476562 77.453125 L 1057.207031 55.148438 C 1057.042969 54.902344 1056.90625 54.644531 1056.796875 54.375 C 1056.6875 54.101562 1056.601562 53.824219 1056.546875 53.535156 C 1056.492188 53.25 1056.464844 52.957031 1056.46875 52.664062 C 1056.472656 52.371094 1056.503906 52.082031 1056.5625 51.796875 C 1056.625 51.507812 1056.710938 51.230469 1056.828125 50.960938 C 1056.941406 50.691406 1057.085938 50.4375 1057.25 50.195312 C 1057.417969 49.953125 1057.605469 49.734375 1057.816406 49.527344 C 1058.027344 49.324219 1058.257812 49.144531 1058.503906 48.988281 C 1058.75 48.828125 1059.011719 48.695312 1059.28125 48.589844 C 1059.554688 48.484375 1059.835938 48.40625 1060.125 48.355469 C 1060.414062 48.304688 1060.707031 48.285156 1060.996094 48.292969 C 1061.289062 48.300781 1061.582031 48.335938 1061.867188 48.402344 C 1062.152344 48.46875 1062.429688 48.5625 1062.695312 48.679688 C 1062.960938 48.800781 1063.214844 48.945312 1063.453125 49.117188 C 1063.691406 49.289062 1063.910156 49.480469 1064.109375 49.695312 C 1064.308594 49.910156 1064.484375 50.140625 1064.640625 50.390625 L 1078.910156 72.695312 C 1079.144531 73.0625 1079.324219 73.457031 1079.441406 73.875 C 1079.558594 74.296875 1079.613281 74.726562 1079.605469 75.160156 C 1079.597656 75.597656 1079.523438 76.023438 1079.390625 76.4375 C 1079.253906 76.851562 1079.0625 77.238281 1078.8125 77.597656 C 1078.5625 77.957031 1078.269531 78.269531 1077.925781 78.539062 C 1077.582031 78.808594 1077.207031 79.023438 1076.800781 79.183594 C 1076.394531 79.34375 1075.972656 79.4375 1075.539062 79.472656 C 1075.105469 79.507812 1074.671875 79.476562 1074.246094 79.382812 Z M 1074.246094 79.382812 " fill-opacity="1" fill-rule="nonzero"/></g></g></g><g clip-path="url(#b367fd49e6)"><g clip-path="url(#691d1528d8)"><g clip-path="url(#f492d56533)"><path fill="#4bc3a0" d="M 1027.84375 203.378906 C 1027.417969 203.285156 1027.011719 203.132812 1026.632812 202.917969 C 1026.25 202.707031 1025.910156 202.441406 1025.609375 202.128906 C 1025.304688 201.8125 1025.054688 201.460938 1024.855469 201.070312 C 1024.660156 200.683594 1024.523438 200.273438 1024.445312 199.84375 C 1024.367188 199.414062 1024.355469 198.984375 1024.40625 198.550781 C 1024.457031 198.117188 1024.570312 197.699219 1024.746094 197.300781 C 1024.921875 196.902344 1025.152344 196.535156 1025.433594 196.203125 C 1025.71875 195.871094 1026.042969 195.585938 1026.410156 195.351562 L 1048.714844 181.082031 C 1048.960938 180.921875 1049.214844 180.785156 1049.488281 180.675781 C 1049.757812 180.566406 1050.039062 180.484375 1050.324219 180.429688 C 1050.609375 180.378906 1050.902344 180.351562 1051.191406 180.355469 C 1051.484375 180.359375 1051.773438 180.390625 1052.058594 180.453125 C 1052.34375 180.511719 1052.621094 180.601562 1052.890625 180.71875 C 1053.160156 180.832031 1053.414062 180.972656 1053.652344 181.140625 C 1053.894531 181.308594 1054.113281 181.496094 1054.316406 181.707031 C 1054.519531 181.914062 1054.699219 182.144531 1054.859375 182.390625 C 1055.015625 182.636719 1055.148438 182.894531 1055.253906 183.167969 C 1055.359375 183.441406 1055.4375 183.71875 1055.488281 184.007812 C 1055.539062 184.296875 1055.558594 184.585938 1055.550781 184.878906 C 1055.542969 185.167969 1055.507812 185.457031 1055.445312 185.742188 C 1055.378906 186.027344 1055.289062 186.304688 1055.167969 186.570312 C 1055.050781 186.835938 1054.90625 187.089844 1054.734375 187.328125 C 1054.566406 187.566406 1054.375 187.785156 1054.164062 187.984375 C 1053.949219 188.183594 1053.71875 188.359375 1053.472656 188.515625 L 1031.167969 202.785156 C 1030.140625 203.445312 1029.03125 203.644531 1027.84375 203.378906 Z M 1027.84375 203.378906 " fill-opacity="1" fill-rule="nonzero"/></g></g></g><g clip-path="url(#719fcc7855)"><g clip-path="url(#de2f00436c)"><g clip-path="url(#2c433411c8)"><path fill="#4bc3a0" d="M 1183.972656 103.484375 C 1183.546875 103.390625 1183.140625 103.238281 1182.761719 103.023438 C 1182.382812 102.808594 1182.039062 102.546875 1181.738281 102.230469 C 1181.433594 101.917969 1181.183594 101.566406 1180.988281 101.175781 C 1180.789062 100.789062 1180.652344 100.378906 1180.574219 99.949219 C 1180.496094 99.519531 1180.484375 99.085938 1180.535156 98.652344 C 1180.589844 98.222656 1180.703125 97.804688 1180.875 97.40625 C 1181.050781 97.003906 1181.28125 96.640625 1181.5625 96.308594 C 1181.847656 95.976562 1182.171875 95.691406 1182.539062 95.457031 L 1204.84375 81.1875 C 1205.089844 81.023438 1205.347656 80.886719 1205.617188 80.777344 C 1205.890625 80.664062 1206.167969 80.582031 1206.457031 80.527344 C 1206.742188 80.472656 1207.035156 80.445312 1207.328125 80.449219 C 1207.621094 80.453125 1207.910156 80.484375 1208.195312 80.542969 C 1208.484375 80.605469 1208.761719 80.691406 1209.03125 80.808594 C 1209.300781 80.921875 1209.554688 81.0625 1209.796875 81.230469 C 1210.035156 81.398438 1210.257812 81.585938 1210.460938 81.796875 C 1210.667969 82.007812 1210.847656 82.238281 1211.003906 82.484375 C 1211.164062 82.730469 1211.292969 82.988281 1211.402344 83.261719 C 1211.507812 83.535156 1211.585938 83.816406 1211.636719 84.105469 C 1211.6875 84.394531 1211.707031 84.683594 1211.699219 84.976562 C 1211.691406 85.269531 1211.65625 85.558594 1211.589844 85.847656 C 1211.523438 86.132812 1211.429688 86.40625 1211.3125 86.675781 C 1211.191406 86.941406 1211.046875 87.195312 1210.875 87.433594 C 1210.703125 87.671875 1210.511719 87.890625 1210.296875 88.089844 C 1210.082031 88.289062 1209.851562 88.464844 1209.601562 88.621094 L 1187.296875 102.890625 C 1186.269531 103.550781 1185.164062 103.746094 1183.972656 103.484375 Z M 1183.972656 103.484375 " fill-opacity="1" fill-rule="nonzero"/></g></g></g><g clip-path="url(#694042879a)"><g clip-path="url(#add3d4ae8b)"><g clip-path="url(#e4df8228f1)"><path fill="#4bc3a0" d="M 1174.140625 235.511719 C 1172.953125 235.253906 1172.027344 234.609375 1171.371094 233.582031 L 1157.101562 211.277344 C 1156.941406 211.035156 1156.804688 210.777344 1156.695312 210.503906 C 1156.585938 210.234375 1156.503906 209.957031 1156.453125 209.667969 C 1156.398438 209.382812 1156.371094 209.089844 1156.375 208.800781 C 1156.378906 208.507812 1156.410156 208.21875 1156.472656 207.933594 C 1156.53125 207.648438 1156.621094 207.371094 1156.738281 207.101562 C 1156.851562 206.832031 1156.996094 206.578125 1157.160156 206.339844 C 1157.328125 206.097656 1157.515625 205.878906 1157.726562 205.675781 C 1157.9375 205.472656 1158.164062 205.292969 1158.410156 205.132812 C 1158.65625 204.976562 1158.914062 204.84375 1159.1875 204.738281 C 1159.460938 204.632812 1159.738281 204.554688 1160.027344 204.503906 C 1160.316406 204.453125 1160.605469 204.433594 1160.898438 204.441406 C 1161.1875 204.449219 1161.476562 204.484375 1161.761719 204.546875 C 1162.046875 204.613281 1162.324219 204.703125 1162.589844 204.824219 C 1162.855469 204.941406 1163.109375 205.085938 1163.347656 205.257812 C 1163.585938 205.425781 1163.804688 205.617188 1164.003906 205.828125 C 1164.203125 206.042969 1164.382812 206.273438 1164.535156 206.519531 L 1178.804688 228.824219 C 1179.042969 229.191406 1179.21875 229.585938 1179.335938 230.007812 C 1179.453125 230.425781 1179.507812 230.855469 1179.5 231.289062 C 1179.492188 231.726562 1179.421875 232.152344 1179.285156 232.566406 C 1179.148438 232.984375 1178.957031 233.367188 1178.707031 233.726562 C 1178.457031 234.085938 1178.164062 234.398438 1177.820312 234.667969 C 1177.476562 234.9375 1177.101562 235.152344 1176.695312 235.3125 C 1176.289062 235.472656 1175.871094 235.566406 1175.433594 235.601562 C 1175 235.636719 1174.570312 235.605469 1174.140625 235.511719 Z M 1174.140625 235.511719 " fill-opacity="1" fill-rule="nonzero"/></g></g></g><g clip-path="url(#7f318e8d23)"><g clip-path="url(#6b4300e1cf)"><g clip-path="url(#d4e8874c3d)"><path fill="#4bc3a0" d="M 1039.472656 129.253906 L 1022.230469 125.46875 C 1021.949219 125.40625 1021.675781 125.316406 1021.410156 125.199219 C 1021.144531 125.085938 1020.890625 124.945312 1020.652344 124.777344 C 1020.414062 124.613281 1020.195312 124.425781 1019.996094 124.214844 C 1019.796875 124.007812 1019.617188 123.78125 1019.460938 123.535156 C 1019.304688 123.292969 1019.171875 123.035156 1019.066406 122.765625 C 1018.960938 122.496094 1018.882812 122.21875 1018.832031 121.933594 C 1018.78125 121.648438 1018.761719 121.359375 1018.765625 121.070312 C 1018.769531 120.78125 1018.804688 120.492188 1018.867188 120.210938 C 1018.929688 119.929688 1019.019531 119.652344 1019.136719 119.386719 C 1019.25 119.121094 1019.390625 118.871094 1019.558594 118.632812 C 1019.722656 118.394531 1019.910156 118.175781 1020.121094 117.976562 C 1020.328125 117.773438 1020.554688 117.597656 1020.800781 117.441406 C 1021.042969 117.285156 1021.300781 117.152344 1021.570312 117.046875 C 1021.839844 116.941406 1022.117188 116.863281 1022.402344 116.8125 C 1022.6875 116.761719 1022.976562 116.738281 1023.265625 116.746094 C 1023.554688 116.75 1023.839844 116.785156 1024.125 116.847656 L 1041.367188 120.632812 C 1041.648438 120.695312 1041.921875 120.785156 1042.1875 120.902344 C 1042.453125 121.019531 1042.707031 121.160156 1042.945312 121.324219 C 1043.179688 121.492188 1043.402344 121.679688 1043.601562 121.886719 C 1043.800781 122.09375 1043.980469 122.320312 1044.136719 122.566406 C 1044.292969 122.808594 1044.421875 123.066406 1044.527344 123.335938 C 1044.636719 123.605469 1044.714844 123.882812 1044.765625 124.167969 C 1044.816406 124.457031 1044.835938 124.742188 1044.832031 125.03125 C 1044.824219 125.320312 1044.792969 125.609375 1044.730469 125.890625 C 1044.667969 126.175781 1044.578125 126.449219 1044.460938 126.714844 C 1044.347656 126.980469 1044.203125 127.230469 1044.039062 127.46875 C 1043.875 127.707031 1043.6875 127.925781 1043.476562 128.125 C 1043.269531 128.328125 1043.042969 128.507812 1042.796875 128.660156 C 1042.554688 128.816406 1042.296875 128.949219 1042.027344 129.054688 C 1041.757812 129.160156 1041.480469 129.238281 1041.195312 129.289062 C 1040.910156 129.339844 1040.621094 129.363281 1040.332031 129.355469 C 1040.042969 129.351562 1039.753906 129.316406 1039.472656 129.253906 Z M 1039.472656 129.253906 " fill-opacity="1" fill-rule="nonzero"/></g></g></g><g clip-path="url(#0196683850)"><g clip-path="url(#0e04d981b4)"><g clip-path="url(#6efac12449)"><path fill="#4bc3a0" d="M 1211.886719 167.125 L 1194.644531 163.339844 C 1194.363281 163.277344 1194.089844 163.1875 1193.824219 163.070312 C 1193.558594 162.953125 1193.304688 162.8125 1193.070312 162.648438 C 1192.832031 162.480469 1192.613281 162.292969 1192.410156 162.085938 C 1192.210938 161.875 1192.03125 161.648438 1191.875 161.40625 C 1191.71875 161.160156 1191.589844 160.90625 1191.484375 160.636719 C 1191.378906 160.363281 1191.300781 160.085938 1191.25 159.800781 C 1191.199219 159.515625 1191.175781 159.230469 1191.179688 158.941406 C 1191.1875 158.648438 1191.21875 158.363281 1191.28125 158.082031 C 1191.34375 157.796875 1191.433594 157.523438 1191.550781 157.257812 C 1191.667969 156.992188 1191.808594 156.742188 1191.972656 156.503906 C 1192.136719 156.265625 1192.324219 156.046875 1192.535156 155.84375 C 1192.742188 155.644531 1192.96875 155.464844 1193.214844 155.308594 C 1193.457031 155.152344 1193.714844 155.023438 1193.984375 154.917969 C 1194.253906 154.8125 1194.53125 154.734375 1194.816406 154.683594 C 1195.101562 154.632812 1195.390625 154.609375 1195.679688 154.617188 C 1195.96875 154.621094 1196.257812 154.65625 1196.539062 154.71875 L 1213.78125 158.503906 C 1214.0625 158.566406 1214.339844 158.65625 1214.605469 158.773438 C 1214.871094 158.886719 1215.121094 159.027344 1215.359375 159.195312 C 1215.597656 159.359375 1215.816406 159.546875 1216.015625 159.757812 C 1216.21875 159.964844 1216.394531 160.191406 1216.550781 160.4375 C 1216.707031 160.679688 1216.839844 160.9375 1216.945312 161.207031 C 1217.050781 161.476562 1217.128906 161.753906 1217.179688 162.039062 C 1217.230469 162.324219 1217.253906 162.613281 1217.246094 162.902344 C 1217.242188 163.191406 1217.207031 163.476562 1217.144531 163.761719 C 1217.082031 164.042969 1216.992188 164.320312 1216.878906 164.585938 C 1216.761719 164.847656 1216.621094 165.101562 1216.453125 165.339844 C 1216.289062 165.578125 1216.101562 165.796875 1215.890625 165.996094 C 1215.683594 166.195312 1215.457031 166.375 1215.210938 166.53125 C 1214.96875 166.6875 1214.710938 166.820312 1214.441406 166.925781 C 1214.171875 167.03125 1213.894531 167.109375 1213.609375 167.160156 C 1213.324219 167.210938 1213.035156 167.234375 1212.746094 167.226562 C 1212.457031 167.222656 1212.171875 167.1875 1211.886719 167.125 Z M 1211.886719 167.125 " fill-opacity="1" fill-rule="nonzero"/></g></g></g><g clip-path="url(#fa42742eaf)"><g clip-path="url(#57e8d30950)"><g clip-path="url(#d9c9fa5b98)"><path fill="#4bc3a0" d="M 1016.230469 267.285156 C 1020.222656 265.179688 1021.789062 260.121094 1019.683594 256.128906 L 933.820312 93.265625 C 931.714844 89.273438 926.65625 87.707031 922.664062 89.8125 L 794.867188 157.1875 L 781.71875 164.121094 C 756.683594 177.316406 747.15625 208.359375 760.304688 233.292969 L 836.820312 378.429688 C 837.617188 381.121094 838.609375 383.710938 839.945312 386.242188 C 850.113281 405.527344 874.0625 412.941406 893.347656 402.773438 L 899.777344 399.386719 L 905.273438 409.808594 C 906.453125 412.046875 908.84375 413.277344 911.203125 413.03125 C 913.710938 412.828125 915.792969 411.109375 916.527344 408.726562 L 923.253906 387.007812 L 925.394531 385.878906 L 947.710938 392.789062 C 949.34375 393.292969 950.964844 393.0625 952.328125 392.34375 C 953.011719 391.984375 953.640625 391.527344 954.167969 390.875 C 955.753906 388.921875 955.992188 386.304688 954.863281 384.160156 L 949.214844 373.445312 L 1045.449219 322.710938 C 1049.445312 320.605469 1051.011719 315.546875 1048.90625 311.550781 C 1046.800781 307.558594 1041.742188 305.992188 1037.746094 308.097656 L 1018.070312 318.472656 L 996.605469 277.757812 L 1016.28125 267.382812 Z M 1003.410156 326.078125 L 941.460938 358.738281 L 931.804688 340.425781 C 930.210938 337.40625 926.492188 336.253906 923.472656 337.847656 L 884.804688 358.234375 C 881.785156 359.828125 880.632812 363.546875 882.226562 366.566406 L 891.878906 384.878906 L 885.449219 388.265625 C 874.25 394.171875 860.265625 389.84375 854.359375 378.640625 C 853.332031 376.695312 852.648438 374.6875 852.210938 372.679688 C 852.207031 372.433594 852.054688 372.140625 852.046875 371.894531 C 851.984375 371.304688 851.921875 370.714844 851.808594 370.027344 C 851.757812 369.929688 851.757812 369.929688 851.804688 369.78125 C 851.28125 363.832031 853.125 357.882812 856.917969 353.269531 C 856.917969 353.269531 856.917969 353.269531 857.015625 353.21875 C 857.496094 352.714844 857.878906 352.261719 858.363281 351.761719 C 858.460938 351.707031 858.601562 351.507812 858.699219 351.457031 C 859.136719 351.101562 859.421875 350.703125 859.859375 350.347656 C 860.054688 350.246094 860.195312 350.046875 860.390625 349.945312 C 860.828125 349.589844 861.164062 349.285156 861.652344 349.03125 C 861.847656 348.925781 861.992188 348.726562 862.1875 348.625 C 862.816406 348.167969 863.402344 347.859375 864.082031 347.5 L 888.433594 334.660156 L 981.945312 285.363281 Z M 1003.410156 326.078125 " fill-opacity="1" fill-rule="nonzero"/></g></g></g><g clip-path="url(#ce4f083257)"><g clip-path="url(#30e4ad7eee)"><g clip-path="url(#a3b4d23240)"><path fill="#4bc3a0" d="M 1193.242188 344.867188 C 1183.449219 341.335938 1172.257812 341.628906 1161.855469 346.507812 L 1160.078125 347.34375 L 1194.972656 421.566406 L 1196.664062 420.78125 C 1217.484375 411 1226.144531 386.976562 1216.359375 366.160156 C 1211.464844 355.765625 1203.035156 348.398438 1193.242188 344.867188 Z M 1129.226562 361.855469 L 961.355469 440.738281 C 958.71875 441.980469 948.542969 449.910156 938.167969 460.503906 C 918.332031 480.863281 903.207031 499.765625 886.863281 521.117188 C 909.578125 521.894531 938.894531 522.273438 966.195312 520.136719 C 980.960938 518.90625 993.691406 516.179688 996.328125 514.941406 L 1164.167969 436.042969 L 1129.226562 361.855469 " fill-opacity="1" fill-rule="nonzero"/></g></g></g></svg>