<svg xmlns="http://www.w3.org/2000/svg" xmlns:xlink="http://www.w3.org/1999/xlink" width="1691" zoomAndPan="magnify" viewBox="0 0 1268.25 652.49998" height="870" preserveAspectRatio="xMidYMid meet" version="1.0"><defs><g/><clipPath id="b4f8e7f423"><path d="M 0.109375 65.382812 L 1267 65.382812 L 1267 651.566406 L 0.109375 651.566406 Z M 0.109375 65.382812 " clip-rule="nonzero"/></clipPath><clipPath id="b9718daa8c"><path d="M 75.054688 65.382812 L 1192.320312 65.382812 C 1233.710938 65.382812 1267.261719 98.933594 1267.261719 140.324219 L 1267.261719 576.625 C 1267.261719 618.015625 1233.710938 651.566406 1192.320312 651.566406 L 75.054688 651.566406 C 33.664062 651.566406 0.109375 618.015625 0.109375 576.625 L 0.109375 140.324219 C 0.109375 98.933594 33.664062 65.382812 75.054688 65.382812 Z M 75.054688 65.382812 " clip-rule="nonzero"/></clipPath><clipPath id="b2ce8f05b3"><path d="M 0.109375 0 L 1266.367188 0 L 1266.367188 586.1875 L 0.109375 586.1875 Z M 0.109375 0 " clip-rule="nonzero"/></clipPath><clipPath id="f75b30d604"><path d="M 75.054688 0 L 1192.320312 0 C 1233.710938 0 1267.261719 33.554688 1267.261719 74.941406 L 1267.261719 511.246094 C 1267.261719 552.632812 1233.710938 586.1875 1192.320312 586.1875 L 75.054688 586.1875 C 33.664062 586.1875 0.109375 552.632812 0.109375 511.246094 L 0.109375 74.941406 C 0.109375 33.554688 33.664062 0 75.054688 0 Z M 75.054688 0 " clip-rule="nonzero"/></clipPath><linearGradient x1="0.000701904" gradientTransform="matrix(2.289794, 0, 0, 2.289794, 0.109246, -0)" y1="128" x2="553.000647" gradientUnits="userSpaceOnUse" y2="128" id="5aa3821976"><stop stop-opacity="1" stop-color="rgb(43.09845%, 83.099365%, 65.499878%)" offset="0"/><stop stop-opacity="1" stop-color="rgb(42.939758%, 83.023071%, 65.46936%)" offset="0.0078125"/><stop stop-opacity="1" stop-color="rgb(42.622375%, 82.868958%, 65.411377%)" offset="0.015625"/><stop stop-opacity="1" stop-color="rgb(42.304993%, 82.71637%, 65.351868%)" offset="0.0234375"/><stop stop-opacity="1" stop-color="rgb(41.98761%, 82.563782%, 65.293884%)" offset="0.03125"/><stop stop-opacity="1" stop-color="rgb(41.668701%, 82.409668%, 65.235901%)" offset="0.0390625"/><stop stop-opacity="1" stop-color="rgb(41.351318%, 82.25708%, 65.176392%)" offset="0.046875"/><stop stop-opacity="1" stop-color="rgb(41.033936%, 82.104492%, 65.118408%)" offset="0.0546875"/><stop stop-opacity="1" stop-color="rgb(40.716553%, 81.951904%, 65.060425%)" offset="0.0625"/><stop stop-opacity="1" stop-color="rgb(40.397644%, 81.797791%, 65.000916%)" offset="0.0703125"/><stop stop-opacity="1" stop-color="rgb(40.080261%, 81.645203%, 64.942932%)" offset="0.078125"/><stop stop-opacity="1" stop-color="rgb(39.762878%, 81.492615%, 64.883423%)" offset="0.0859375"/><stop stop-opacity="1" stop-color="rgb(39.445496%, 81.340027%, 64.825439%)" offset="0.09375"/><stop stop-opacity="1" stop-color="rgb(39.126587%, 81.185913%, 64.767456%)" offset="0.101562"/><stop stop-opacity="1" stop-color="rgb(38.809204%, 81.033325%, 64.707947%)" offset="0.109375"/><stop stop-opacity="1" stop-color="rgb(38.491821%, 80.880737%, 64.649963%)" offset="0.117188"/><stop stop-opacity="1" stop-color="rgb(38.174438%, 80.726624%, 64.59198%)" offset="0.125"/><stop stop-opacity="1" stop-color="rgb(37.85553%, 80.574036%, 64.532471%)" offset="0.132812"/><stop stop-opacity="1" stop-color="rgb(37.538147%, 80.421448%, 64.474487%)" offset="0.140625"/><stop stop-opacity="1" stop-color="rgb(37.220764%, 80.26886%, 64.414978%)" offset="0.148437"/><stop stop-opacity="1" stop-color="rgb(36.903381%, 80.114746%, 64.356995%)" offset="0.15625"/><stop stop-opacity="1" stop-color="rgb(36.585999%, 79.962158%, 64.299011%)" offset="0.164062"/><stop stop-opacity="1" stop-color="rgb(36.26709%, 79.80957%, 64.239502%)" offset="0.171875"/><stop stop-opacity="1" stop-color="rgb(35.949707%, 79.655457%, 64.181519%)" offset="0.179687"/><stop stop-opacity="1" stop-color="rgb(35.632324%, 79.502869%, 64.123535%)" offset="0.1875"/><stop stop-opacity="1" stop-color="rgb(35.314941%, 79.350281%, 64.064026%)" offset="0.195312"/><stop stop-opacity="1" stop-color="rgb(34.996033%, 79.197693%, 64.006042%)" offset="0.203125"/><stop stop-opacity="1" stop-color="rgb(34.67865%, 79.043579%, 63.948059%)" offset="0.210937"/><stop stop-opacity="1" stop-color="rgb(34.361267%, 78.890991%, 63.88855%)" offset="0.21875"/><stop stop-opacity="1" stop-color="rgb(34.043884%, 78.738403%, 63.830566%)" offset="0.226562"/><stop stop-opacity="1" stop-color="rgb(33.724976%, 78.58429%, 63.771057%)" offset="0.234375"/><stop stop-opacity="1" stop-color="rgb(33.407593%, 78.431702%, 63.713074%)" offset="0.242187"/><stop stop-opacity="1" stop-color="rgb(33.09021%, 78.279114%, 63.65509%)" offset="0.25"/><stop stop-opacity="1" stop-color="rgb(32.772827%, 78.126526%, 63.595581%)" offset="0.257812"/><stop stop-opacity="1" stop-color="rgb(32.453918%, 77.972412%, 63.537598%)" offset="0.265625"/><stop stop-opacity="1" stop-color="rgb(32.136536%, 77.819824%, 63.479614%)" offset="0.273437"/><stop stop-opacity="1" stop-color="rgb(31.819153%, 77.667236%, 63.420105%)" offset="0.28125"/><stop stop-opacity="1" stop-color="rgb(31.50177%, 77.514648%, 63.362122%)" offset="0.289062"/><stop stop-opacity="1" stop-color="rgb(31.184387%, 77.360535%, 63.302612%)" offset="0.296875"/><stop stop-opacity="1" stop-color="rgb(30.865479%, 77.207947%, 63.244629%)" offset="0.304687"/><stop stop-opacity="1" stop-color="rgb(30.548096%, 77.055359%, 63.186646%)" offset="0.3125"/><stop stop-opacity="1" stop-color="rgb(30.230713%, 76.901245%, 63.127136%)" offset="0.320312"/><stop stop-opacity="1" stop-color="rgb(29.91333%, 76.748657%, 63.069153%)" offset="0.328125"/><stop stop-opacity="1" stop-color="rgb(29.594421%, 76.596069%, 63.011169%)" offset="0.335937"/><stop stop-opacity="1" stop-color="rgb(29.277039%, 76.443481%, 62.95166%)" offset="0.34375"/><stop stop-opacity="1" stop-color="rgb(28.959656%, 76.289368%, 62.893677%)" offset="0.351562"/><stop stop-opacity="1" stop-color="rgb(28.642273%, 76.13678%, 62.834167%)" offset="0.359375"/><stop stop-opacity="1" stop-color="rgb(28.323364%, 75.984192%, 62.776184%)" offset="0.367187"/><stop stop-opacity="1" stop-color="rgb(28.005981%, 75.830078%, 62.718201%)" offset="0.375"/><stop stop-opacity="1" stop-color="rgb(27.688599%, 75.67749%, 62.658691%)" offset="0.382812"/><stop stop-opacity="1" stop-color="rgb(27.371216%, 75.524902%, 62.600708%)" offset="0.390625"/><stop stop-opacity="1" stop-color="rgb(27.052307%, 75.372314%, 62.542725%)" offset="0.398438"/><stop stop-opacity="1" stop-color="rgb(26.734924%, 75.218201%, 62.483215%)" offset="0.40625"/><stop stop-opacity="1" stop-color="rgb(26.417542%, 75.065613%, 62.425232%)" offset="0.414062"/><stop stop-opacity="1" stop-color="rgb(26.100159%, 74.913025%, 62.365723%)" offset="0.421875"/><stop stop-opacity="1" stop-color="rgb(25.78125%, 74.758911%, 62.307739%)" offset="0.429688"/><stop stop-opacity="1" stop-color="rgb(25.463867%, 74.606323%, 62.249756%)" offset="0.4375"/><stop stop-opacity="1" stop-color="rgb(25.146484%, 74.453735%, 62.190247%)" offset="0.445312"/><stop stop-opacity="1" stop-color="rgb(24.829102%, 74.301147%, 62.132263%)" offset="0.453125"/><stop stop-opacity="1" stop-color="rgb(24.511719%, 74.147034%, 62.07428%)" offset="0.460938"/><stop stop-opacity="1" stop-color="rgb(24.19281%, 73.994446%, 62.014771%)" offset="0.46875"/><stop stop-opacity="1" stop-color="rgb(23.875427%, 73.841858%, 61.956787%)" offset="0.476562"/><stop stop-opacity="1" stop-color="rgb(23.558044%, 73.687744%, 61.897278%)" offset="0.484375"/><stop stop-opacity="1" stop-color="rgb(23.240662%, 73.535156%, 61.839294%)" offset="0.492187"/><stop stop-opacity="1" stop-color="rgb(22.921753%, 73.382568%, 61.781311%)" offset="0.5"/><stop stop-opacity="1" stop-color="rgb(22.60437%, 73.22998%, 61.721802%)" offset="0.507812"/><stop stop-opacity="1" stop-color="rgb(22.286987%, 73.075867%, 61.663818%)" offset="0.515625"/><stop stop-opacity="1" stop-color="rgb(21.969604%, 72.923279%, 61.605835%)" offset="0.523437"/><stop stop-opacity="1" stop-color="rgb(21.650696%, 72.770691%, 61.546326%)" offset="0.53125"/><stop stop-opacity="1" stop-color="rgb(21.333313%, 72.618103%, 61.488342%)" offset="0.539063"/><stop stop-opacity="1" stop-color="rgb(21.01593%, 72.463989%, 61.428833%)" offset="0.546875"/><stop stop-opacity="1" stop-color="rgb(20.698547%, 72.311401%, 61.37085%)" offset="0.554688"/><stop stop-opacity="1" stop-color="rgb(20.379639%, 72.158813%, 61.312866%)" offset="0.5625"/><stop stop-opacity="1" stop-color="rgb(20.062256%, 72.0047%, 61.253357%)" offset="0.570312"/><stop stop-opacity="1" stop-color="rgb(19.744873%, 71.852112%, 61.195374%)" offset="0.578125"/><stop stop-opacity="1" stop-color="rgb(19.42749%, 71.699524%, 61.13739%)" offset="0.585938"/><stop stop-opacity="1" stop-color="rgb(19.110107%, 71.546936%, 61.077881%)" offset="0.59375"/><stop stop-opacity="1" stop-color="rgb(18.791199%, 71.392822%, 61.019897%)" offset="0.601562"/><stop stop-opacity="1" stop-color="rgb(18.473816%, 71.240234%, 60.960388%)" offset="0.609375"/><stop stop-opacity="1" stop-color="rgb(18.156433%, 71.087646%, 60.902405%)" offset="0.617187"/><stop stop-opacity="1" stop-color="rgb(17.83905%, 70.933533%, 60.844421%)" offset="0.625"/><stop stop-opacity="1" stop-color="rgb(17.520142%, 70.780945%, 60.784912%)" offset="0.632812"/><stop stop-opacity="1" stop-color="rgb(17.202759%, 70.628357%, 60.726929%)" offset="0.640625"/><stop stop-opacity="1" stop-color="rgb(16.885376%, 70.475769%, 60.668945%)" offset="0.648438"/><stop stop-opacity="1" stop-color="rgb(16.567993%, 70.321655%, 60.609436%)" offset="0.65625"/><stop stop-opacity="1" stop-color="rgb(16.249084%, 70.169067%, 60.551453%)" offset="0.664062"/><stop stop-opacity="1" stop-color="rgb(15.931702%, 70.016479%, 60.493469%)" offset="0.671875"/><stop stop-opacity="1" stop-color="rgb(15.614319%, 69.862366%, 60.43396%)" offset="0.679688"/><stop stop-opacity="1" stop-color="rgb(15.296936%, 69.709778%, 60.375977%)" offset="0.6875"/><stop stop-opacity="1" stop-color="rgb(14.978027%, 69.55719%, 60.316467%)" offset="0.695312"/><stop stop-opacity="1" stop-color="rgb(14.660645%, 69.404602%, 60.258484%)" offset="0.703125"/><stop stop-opacity="1" stop-color="rgb(14.343262%, 69.250488%, 60.2005%)" offset="0.710938"/><stop stop-opacity="1" stop-color="rgb(14.025879%, 69.0979%, 60.140991%)" offset="0.71875"/><stop stop-opacity="1" stop-color="rgb(13.708496%, 68.945312%, 60.083008%)" offset="0.726562"/><stop stop-opacity="1" stop-color="rgb(13.389587%, 68.791199%, 60.025024%)" offset="0.734375"/><stop stop-opacity="1" stop-color="rgb(13.072205%, 68.638611%, 59.965515%)" offset="0.742187"/><stop stop-opacity="1" stop-color="rgb(12.754822%, 68.486023%, 59.907532%)" offset="0.75"/><stop stop-opacity="1" stop-color="rgb(12.437439%, 68.333435%, 59.848022%)" offset="0.757812"/><stop stop-opacity="1" stop-color="rgb(12.11853%, 68.179321%, 59.790039%)" offset="0.765625"/><stop stop-opacity="1" stop-color="rgb(11.801147%, 68.026733%, 59.732056%)" offset="0.773438"/><stop stop-opacity="1" stop-color="rgb(11.483765%, 67.874146%, 59.672546%)" offset="0.78125"/><stop stop-opacity="1" stop-color="rgb(11.166382%, 67.721558%, 59.614563%)" offset="0.789062"/><stop stop-opacity="1" stop-color="rgb(10.847473%, 67.567444%, 59.55658%)" offset="0.796875"/><stop stop-opacity="1" stop-color="rgb(10.53009%, 67.414856%, 59.49707%)" offset="0.804688"/><stop stop-opacity="1" stop-color="rgb(10.212708%, 67.262268%, 59.439087%)" offset="0.8125"/><stop stop-opacity="1" stop-color="rgb(9.895325%, 67.108154%, 59.379578%)" offset="0.820312"/><stop stop-opacity="1" stop-color="rgb(9.576416%, 66.955566%, 59.321594%)" offset="0.828125"/><stop stop-opacity="1" stop-color="rgb(9.259033%, 66.802979%, 59.263611%)" offset="0.835938"/><stop stop-opacity="1" stop-color="rgb(8.94165%, 66.650391%, 59.204102%)" offset="0.84375"/><stop stop-opacity="1" stop-color="rgb(8.624268%, 66.496277%, 59.146118%)" offset="0.851562"/><stop stop-opacity="1" stop-color="rgb(8.305359%, 66.343689%, 59.088135%)" offset="0.859375"/><stop stop-opacity="1" stop-color="rgb(7.987976%, 66.191101%, 59.028625%)" offset="0.867187"/><stop stop-opacity="1" stop-color="rgb(7.670593%, 66.036987%, 58.970642%)" offset="0.875"/><stop stop-opacity="1" stop-color="rgb(7.35321%, 65.884399%, 58.911133%)" offset="0.882813"/><stop stop-opacity="1" stop-color="rgb(7.035828%, 65.731812%, 58.853149%)" offset="0.890625"/><stop stop-opacity="1" stop-color="rgb(6.716919%, 65.579224%, 58.795166%)" offset="0.898438"/><stop stop-opacity="1" stop-color="rgb(6.399536%, 65.42511%, 58.735657%)" offset="0.90625"/><stop stop-opacity="1" stop-color="rgb(6.082153%, 65.272522%, 58.677673%)" offset="0.914062"/><stop stop-opacity="1" stop-color="rgb(5.764771%, 65.119934%, 58.61969%)" offset="0.921875"/><stop stop-opacity="1" stop-color="rgb(5.445862%, 64.96582%, 58.560181%)" offset="0.929688"/><stop stop-opacity="1" stop-color="rgb(5.128479%, 64.813232%, 58.502197%)" offset="0.9375"/><stop stop-opacity="1" stop-color="rgb(4.811096%, 64.660645%, 58.442688%)" offset="0.945312"/><stop stop-opacity="1" stop-color="rgb(4.493713%, 64.508057%, 58.384705%)" offset="0.953125"/><stop stop-opacity="1" stop-color="rgb(4.174805%, 64.353943%, 58.326721%)" offset="0.960938"/><stop stop-opacity="1" stop-color="rgb(3.857422%, 64.201355%, 58.267212%)" offset="0.96875"/><stop stop-opacity="1" stop-color="rgb(3.540039%, 64.048767%, 58.209229%)" offset="0.976562"/><stop stop-opacity="1" stop-color="rgb(3.222656%, 63.896179%, 58.151245%)" offset="0.984375"/><stop stop-opacity="1" stop-color="rgb(2.903748%, 63.742065%, 58.091736%)" offset="0.992187"/><stop stop-opacity="1" stop-color="rgb(2.586365%, 63.589478%, 58.033752%)" offset="1"/></linearGradient><clipPath id="ca9dc8e2ae"><path d="M 981 65.382812 L 1191.59375 65.382812 L 1191.59375 277 L 981 277 Z M 981 65.382812 " clip-rule="nonzero"/></clipPath><clipPath id="321a556ff1"><path d="M 595.363281 98.242188 L 930 98.242188 L 930 377 L 595.363281 377 Z M 595.363281 98.242188 " clip-rule="nonzero"/></clipPath><clipPath id="541af9997f"><path d="M 930.074219 309.242188 L 1085.203125 309.242188 L 1085.203125 533.320312 L 930.074219 533.320312 Z M 930.074219 309.242188 " clip-rule="nonzero"/></clipPath><clipPath id="ba85f49364"><path d="M 1104.292969 309.242188 L 1229.449219 309.242188 L 1229.449219 533.320312 L 1104.292969 533.320312 Z M 1104.292969 309.242188 " clip-rule="nonzero"/></clipPath><clipPath id="7b6911e7db"><path d="M 658.503906 337.582031 L 744 337.582031 L 744 439 L 658.503906 439 Z M 658.503906 337.582031 " clip-rule="nonzero"/></clipPath><clipPath id="27ea1456f2"><path d="M 847 466 L 878.542969 466 L 878.542969 497 L 847 497 Z M 847 466 " clip-rule="nonzero"/></clipPath><clipPath id="79d71df34f"><path d="M 796 509 L 849 509 L 849 586.394531 L 796 586.394531 Z M 796 509 " clip-rule="nonzero"/></clipPath><clipPath id="cd109293df"><path d="M 715 509 L 765 509 L 765 586.394531 L 715 586.394531 Z M 715 509 " clip-rule="nonzero"/></clipPath><clipPath id="76f9424f43"><path d="M 777 509 L 784 509 L 784 586.394531 L 777 586.394531 Z M 777 509 " clip-rule="nonzero"/></clipPath></defs><g clip-path="url(#b4f8e7f423)"><g clip-path="url(#b9718daa8c)"><path fill="#048c82" d="M 0.109375 65.382812 L 1266.367188 65.382812 L 1266.367188 651.570312 L 0.109375 651.570312 Z M 0.109375 65.382812 " fill-opacity="1" fill-rule="nonzero"/></g></g><g clip-path="url(#b2ce8f05b3)"><g clip-path="url(#f75b30d604)"><path fill="url(#5aa3821976)" d="M 0.109375 0 L 0.109375 586.1875 L 1266.367188 586.1875 L 1266.367188 0 Z M 0.109375 0 " fill-rule="nonzero"/></g></g><g fill="#ffffff" fill-opacity="1"><g transform="translate(110.945853, 240.633771)"><g><path d="M 74.796875 -18.59375 L 35.53125 -18.59375 L 29.234375 0 L 2.390625 0 L 40.46875 -105.21875 L 70.15625 -105.21875 L 108.21875 0 L 81.09375 0 Z M 68.203125 -38.375 L 55.15625 -76.890625 L 42.265625 -38.375 Z M 68.203125 -38.375 "/></g></g></g><g fill="#ffffff" fill-opacity="1"><g transform="translate(221.411227, 240.633771)"><g><path d="M 55.90625 -21.734375 L 55.90625 0 L 42.875 0 C 33.570312 0 26.320312 -2.269531 21.125 -6.8125 C 15.9375 -11.363281 13.34375 -18.785156 13.34375 -29.078125 L 13.34375 -62.359375 L 3.140625 -62.359375 L 3.140625 -83.640625 L 13.34375 -83.640625 L 13.34375 -104.03125 L 38.96875 -104.03125 L 38.96875 -83.640625 L 55.765625 -83.640625 L 55.765625 -62.359375 L 38.96875 -62.359375 L 38.96875 -28.78125 C 38.96875 -26.28125 39.566406 -24.476562 40.765625 -23.375 C 41.960938 -22.28125 43.960938 -21.734375 46.765625 -21.734375 Z M 55.90625 -21.734375 "/></g></g></g><g fill="#ffffff" fill-opacity="1"><g transform="translate(282.264601, 240.633771)"><g><path d="M 34.921875 -110.921875 L 34.921875 0 L 9.296875 0 L 9.296875 -110.921875 Z M 34.921875 -110.921875 "/></g></g></g><g fill="#ffffff" fill-opacity="1"><g transform="translate(326.480727, 240.633771)"><g><path d="M 4.203125 -41.96875 C 4.203125 -50.5625 5.820312 -58.101562 9.0625 -64.59375 C 12.3125 -71.09375 16.734375 -76.09375 22.328125 -79.59375 C 27.929688 -83.09375 34.175781 -84.84375 41.0625 -84.84375 C 46.957031 -84.84375 52.128906 -83.640625 56.578125 -81.234375 C 61.023438 -78.835938 64.445312 -75.691406 66.84375 -71.796875 L 66.84375 -83.640625 L 92.484375 -83.640625 L 92.484375 0 L 66.84375 0 L 66.84375 -11.84375 C 64.351562 -7.945312 60.882812 -4.796875 56.4375 -2.390625 C 51.988281 0.00390625 46.816406 1.203125 40.921875 1.203125 C 34.128906 1.203125 27.929688 -0.566406 22.328125 -4.109375 C 16.734375 -7.660156 12.3125 -12.707031 9.0625 -19.25 C 5.820312 -25.800781 4.203125 -33.375 4.203125 -41.96875 Z M 66.84375 -41.8125 C 66.84375 -48.207031 65.066406 -53.253906 61.515625 -56.953125 C 57.972656 -60.648438 53.65625 -62.5 48.5625 -62.5 C 43.46875 -62.5 39.144531 -60.675781 35.59375 -57.03125 C 32.050781 -53.382812 30.28125 -48.363281 30.28125 -41.96875 C 30.28125 -35.570312 32.050781 -30.5 35.59375 -26.75 C 39.144531 -23.007812 43.46875 -21.140625 48.5625 -21.140625 C 53.65625 -21.140625 57.972656 -22.984375 61.515625 -26.671875 C 65.066406 -30.367188 66.84375 -35.414062 66.84375 -41.8125 Z M 66.84375 -41.8125 "/></g></g></g><g fill="#ffffff" fill-opacity="1"><g transform="translate(428.252747, 240.633771)"><g><path d="M 43.3125 1.203125 C 36.019531 1.203125 29.523438 -0.046875 23.828125 -2.546875 C 18.128906 -5.046875 13.628906 -8.46875 10.328125 -12.8125 C 7.035156 -17.15625 5.191406 -22.03125 4.796875 -27.4375 L 30.125 -27.4375 C 30.425781 -24.53125 31.773438 -22.175781 34.171875 -20.375 C 36.566406 -18.582031 39.515625 -17.6875 43.015625 -17.6875 C 46.210938 -17.6875 48.6875 -18.3125 50.4375 -19.5625 C 52.1875 -20.8125 53.0625 -22.4375 53.0625 -24.4375 C 53.0625 -26.832031 51.8125 -28.601562 49.3125 -29.75 C 46.8125 -30.90625 42.765625 -32.179688 37.171875 -33.578125 C 31.171875 -34.972656 26.171875 -36.445312 22.171875 -38 C 18.179688 -39.550781 14.738281 -42 11.84375 -45.34375 C 8.945312 -48.6875 7.5 -53.207031 7.5 -58.90625 C 7.5 -63.707031 8.820312 -68.078125 11.46875 -72.015625 C 14.113281 -75.960938 18.007812 -79.085938 23.15625 -81.390625 C 28.300781 -83.691406 34.421875 -84.84375 41.515625 -84.84375 C 52.015625 -84.84375 60.285156 -82.242188 66.328125 -77.046875 C 72.367188 -71.847656 75.84375 -64.953125 76.75 -56.359375 L 53.0625 -56.359375 C 52.664062 -59.253906 51.390625 -61.550781 49.234375 -63.25 C 47.085938 -64.945312 44.265625 -65.796875 40.765625 -65.796875 C 37.773438 -65.796875 35.476562 -65.222656 33.875 -64.078125 C 32.28125 -62.929688 31.484375 -61.359375 31.484375 -59.359375 C 31.484375 -56.960938 32.753906 -55.160156 35.296875 -53.953125 C 37.847656 -52.753906 41.820312 -51.554688 47.21875 -50.359375 C 53.414062 -48.765625 58.460938 -47.191406 62.359375 -45.640625 C 66.253906 -44.085938 69.675781 -41.585938 72.625 -38.140625 C 75.570312 -34.691406 77.09375 -30.070312 77.1875 -24.28125 C 77.1875 -19.382812 75.8125 -15.007812 73.0625 -11.15625 C 70.320312 -7.3125 66.378906 -4.289062 61.234375 -2.09375 C 56.085938 0.101562 50.113281 1.203125 43.3125 1.203125 Z M 43.3125 1.203125 "/></g></g></g><g fill="#ffffff" fill-opacity="1"><g transform="translate(110.945853, 450.472959)"><g><path d="M 48.71875 -105.21875 C 59.8125 -105.21875 69.503906 -103.019531 77.796875 -98.625 C 86.085938 -94.226562 92.503906 -88.054688 97.046875 -80.109375 C 101.597656 -72.171875 103.875 -63.003906 103.875 -52.609375 C 103.875 -42.316406 101.597656 -33.171875 97.046875 -25.171875 C 92.503906 -17.179688 86.0625 -10.988281 77.71875 -6.59375 C 69.375 -2.195312 59.707031 0 48.71875 0 L 9.296875 0 L 9.296875 -105.21875 Z M 47.0625 -22.1875 C 56.757812 -22.1875 64.304688 -24.832031 69.703125 -30.125 C 75.097656 -35.425781 77.796875 -42.921875 77.796875 -52.609375 C 77.796875 -62.304688 75.097656 -69.851562 69.703125 -75.25 C 64.304688 -80.644531 56.757812 -83.34375 47.0625 -83.34375 L 34.921875 -83.34375 L 34.921875 -22.1875 Z M 47.0625 -22.1875 "/></g></g></g><g fill="#ffffff" fill-opacity="1"><g transform="translate(219.912376, 450.472959)"><g><path d="M 22.1875 -92.328125 C 17.6875 -92.328125 14.007812 -93.648438 11.15625 -96.296875 C 8.3125 -98.953125 6.890625 -102.226562 6.890625 -106.125 C 6.890625 -110.125 8.3125 -113.445312 11.15625 -116.09375 C 14.007812 -118.738281 17.6875 -120.0625 22.1875 -120.0625 C 26.582031 -120.0625 30.203125 -118.738281 33.046875 -116.09375 C 35.898438 -113.445312 37.328125 -110.125 37.328125 -106.125 C 37.328125 -102.226562 35.898438 -98.953125 33.046875 -96.296875 C 30.203125 -93.648438 26.582031 -92.328125 22.1875 -92.328125 Z M 34.921875 -83.640625 L 34.921875 0 L 9.296875 0 L 9.296875 -83.640625 Z M 34.921875 -83.640625 "/></g></g></g><g fill="#ffffff" fill-opacity="1"><g transform="translate(264.128502, 450.472959)"><g><path d="M 41.0625 -84.84375 C 46.957031 -84.84375 52.128906 -83.640625 56.578125 -81.234375 C 61.023438 -78.835938 64.445312 -75.691406 66.84375 -71.796875 L 66.84375 -83.640625 L 92.484375 -83.640625 L 92.484375 -0.15625 C 92.484375 7.539062 90.957031 14.507812 87.90625 20.75 C 84.863281 27 80.21875 31.972656 73.96875 35.671875 C 67.726562 39.367188 59.957031 41.21875 50.65625 41.21875 C 38.269531 41.21875 28.226562 38.296875 20.53125 32.453125 C 12.84375 26.609375 8.445312 18.6875 7.34375 8.6875 L 32.671875 8.6875 C 33.472656 11.882812 35.375 14.40625 38.375 16.25 C 41.375 18.101562 45.070312 19.03125 49.46875 19.03125 C 54.757812 19.03125 58.976562 17.503906 62.125 14.453125 C 65.269531 11.410156 66.84375 6.539062 66.84375 -0.15625 L 66.84375 -11.984375 C 64.351562 -8.085938 60.90625 -4.914062 56.5 -2.46875 C 52.101562 -0.0195312 46.957031 1.203125 41.0625 1.203125 C 34.175781 1.203125 27.929688 -0.566406 22.328125 -4.109375 C 16.734375 -7.660156 12.3125 -12.707031 9.0625 -19.25 C 5.820312 -25.800781 4.203125 -33.375 4.203125 -41.96875 C 4.203125 -50.5625 5.820312 -58.101562 9.0625 -64.59375 C 12.3125 -71.09375 16.734375 -76.09375 22.328125 -79.59375 C 27.929688 -83.09375 34.175781 -84.84375 41.0625 -84.84375 Z M 66.84375 -41.8125 C 66.84375 -48.207031 65.066406 -53.253906 61.515625 -56.953125 C 57.972656 -60.648438 53.65625 -62.5 48.5625 -62.5 C 43.46875 -62.5 39.144531 -60.675781 35.59375 -57.03125 C 32.050781 -53.382812 30.28125 -48.363281 30.28125 -41.96875 C 30.28125 -35.570312 32.050781 -30.5 35.59375 -26.75 C 39.144531 -23.007812 43.46875 -21.140625 48.5625 -21.140625 C 53.65625 -21.140625 57.972656 -22.984375 61.515625 -26.671875 C 65.066406 -30.367188 66.84375 -35.414062 66.84375 -41.8125 Z M 66.84375 -41.8125 "/></g></g></g><g fill="#ffffff" fill-opacity="1"><g transform="translate(365.900522, 450.472959)"><g><path d="M 22.1875 -92.328125 C 17.6875 -92.328125 14.007812 -93.648438 11.15625 -96.296875 C 8.3125 -98.953125 6.890625 -102.226562 6.890625 -106.125 C 6.890625 -110.125 8.3125 -113.445312 11.15625 -116.09375 C 14.007812 -118.738281 17.6875 -120.0625 22.1875 -120.0625 C 26.582031 -120.0625 30.203125 -118.738281 33.046875 -116.09375 C 35.898438 -113.445312 37.328125 -110.125 37.328125 -106.125 C 37.328125 -102.226562 35.898438 -98.953125 33.046875 -96.296875 C 30.203125 -93.648438 26.582031 -92.328125 22.1875 -92.328125 Z M 34.921875 -83.640625 L 34.921875 0 L 9.296875 0 L 9.296875 -83.640625 Z M 34.921875 -83.640625 "/></g></g><g transform="translate(410.116637, 450.472959)"><g><path d="M 55.90625 -21.734375 L 55.90625 0 L 42.875 0 C 33.570312 0 26.320312 -2.269531 21.125 -6.8125 C 15.9375 -11.363281 13.34375 -18.785156 13.34375 -29.078125 L 13.34375 -62.359375 L 3.140625 -62.359375 L 3.140625 -83.640625 L 13.34375 -83.640625 L 13.34375 -104.03125 L 38.96875 -104.03125 L 38.96875 -83.640625 L 55.765625 -83.640625 L 55.765625 -62.359375 L 38.96875 -62.359375 L 38.96875 -28.78125 C 38.96875 -26.28125 39.566406 -24.476562 40.765625 -23.375 C 41.960938 -22.28125 43.960938 -21.734375 46.765625 -21.734375 Z M 55.90625 -21.734375 "/></g></g><g transform="translate(470.970001, 450.472959)"><g><path d="M 4.203125 -41.96875 C 4.203125 -50.5625 5.820312 -58.101562 9.0625 -64.59375 C 12.3125 -71.09375 16.734375 -76.09375 22.328125 -79.59375 C 27.929688 -83.09375 34.175781 -84.84375 41.0625 -84.84375 C 46.957031 -84.84375 52.128906 -83.640625 56.578125 -81.234375 C 61.023438 -78.835938 64.445312 -75.691406 66.84375 -71.796875 L 66.84375 -83.640625 L 92.484375 -83.640625 L 92.484375 0 L 66.84375 0 L 66.84375 -11.84375 C 64.351562 -7.945312 60.882812 -4.796875 56.4375 -2.390625 C 51.988281 0.00390625 46.816406 1.203125 40.921875 1.203125 C 34.128906 1.203125 27.929688 -0.566406 22.328125 -4.109375 C 16.734375 -7.660156 12.3125 -12.707031 9.0625 -19.25 C 5.820312 -25.800781 4.203125 -33.375 4.203125 -41.96875 Z M 66.84375 -41.8125 C 66.84375 -48.207031 65.066406 -53.253906 61.515625 -56.953125 C 57.972656 -60.648438 53.65625 -62.5 48.5625 -62.5 C 43.46875 -62.5 39.144531 -60.675781 35.59375 -57.03125 C 32.050781 -53.382812 30.28125 -48.363281 30.28125 -41.96875 C 30.28125 -35.570312 32.050781 -30.5 35.59375 -26.75 C 39.144531 -23.007812 43.46875 -21.140625 48.5625 -21.140625 C 53.65625 -21.140625 57.972656 -22.984375 61.515625 -26.671875 C 65.066406 -30.367188 66.84375 -35.414062 66.84375 -41.8125 Z M 66.84375 -41.8125 "/></g></g></g><g fill="#ffffff" fill-opacity="1"><g transform="translate(572.742053, 450.472959)"><g><path d="M 34.921875 -110.921875 L 34.921875 0 L 9.296875 0 L 9.296875 -110.921875 Z M 34.921875 -110.921875 "/></g></g></g><g clip-path="url(#ca9dc8e2ae)"><path fill="#4bc3a0" d="M 1191.511719 180.828125 C 1191.351562 182.472656 1191.15625 184.117188 1190.921875 185.753906 C 1190.683594 187.386719 1190.410156 189.019531 1190.097656 190.640625 C 1189.789062 192.265625 1189.4375 193.882812 1189.050781 195.488281 C 1188.660156 197.09375 1188.234375 198.691406 1187.773438 200.277344 C 1187.308594 201.867188 1186.808594 203.441406 1186.273438 205.003906 C 1185.734375 206.570312 1185.160156 208.117188 1184.550781 209.65625 C 1183.941406 211.191406 1183.296875 212.714844 1182.613281 214.21875 C 1181.933594 215.726562 1181.214844 217.214844 1180.464844 218.6875 C 1179.710938 220.160156 1178.925781 221.613281 1178.105469 223.050781 C 1177.285156 224.484375 1176.429688 225.898438 1175.542969 227.296875 C 1174.65625 228.691406 1173.738281 230.0625 1172.789062 231.414062 C 1171.835938 232.769531 1170.851562 234.097656 1169.839844 235.402344 C 1168.824219 236.707031 1167.78125 237.988281 1166.707031 239.246094 C 1165.632812 240.503906 1164.527344 241.734375 1163.398438 242.9375 C 1162.265625 244.144531 1161.105469 245.320312 1159.917969 246.46875 C 1158.730469 247.621094 1157.515625 248.742188 1156.273438 249.835938 C 1155.035156 250.929688 1153.769531 251.992188 1152.480469 253.023438 C 1151.1875 254.058594 1149.875 255.0625 1148.535156 256.03125 C 1147.199219 257.003906 1145.839844 257.945312 1144.457031 258.851562 C 1143.074219 259.757812 1141.671875 260.632812 1140.25 261.476562 C 1138.828125 262.316406 1137.386719 263.125 1135.925781 263.898438 C 1134.464844 264.671875 1132.984375 265.410156 1131.488281 266.117188 C 1129.992188 266.820312 1128.480469 267.488281 1126.953125 268.121094 C 1125.425781 268.753906 1123.886719 269.351562 1122.332031 269.914062 C 1120.777344 270.472656 1119.207031 270.996094 1117.628906 271.484375 C 1116.046875 271.96875 1114.457031 272.417969 1112.855469 272.832031 C 1111.253906 273.242188 1109.644531 273.617188 1108.027344 273.953125 C 1106.40625 274.289062 1104.78125 274.585938 1103.148438 274.847656 C 1101.515625 275.105469 1099.878906 275.328125 1098.234375 275.511719 C 1096.59375 275.695312 1094.945312 275.835938 1093.296875 275.941406 C 1091.644531 276.046875 1089.996094 276.113281 1088.34375 276.140625 C 1086.6875 276.167969 1085.035156 276.15625 1083.382812 276.105469 C 1081.730469 276.058594 1080.082031 275.96875 1078.433594 275.839844 C 1076.785156 275.710938 1075.140625 275.546875 1073.5 275.339844 C 1071.859375 275.132812 1070.222656 274.890625 1068.59375 274.609375 C 1066.964844 274.324219 1065.34375 274.003906 1063.730469 273.648438 C 1062.117188 273.289062 1060.511719 272.890625 1058.917969 272.457031 C 1057.320312 272.023438 1055.738281 271.550781 1054.164062 271.042969 C 1052.589844 270.535156 1051.03125 269.988281 1049.484375 269.40625 C 1047.9375 268.824219 1046.402344 268.207031 1044.886719 267.554688 C 1043.367188 266.898438 1041.863281 266.210938 1040.378906 265.484375 C 1038.894531 264.757812 1037.425781 264 1035.976562 263.207031 C 1034.523438 262.414062 1033.09375 261.585938 1031.683594 260.722656 C 1030.273438 259.863281 1028.882812 258.96875 1027.511719 258.042969 C 1026.144531 257.113281 1024.796875 256.15625 1023.472656 255.167969 C 1022.148438 254.175781 1020.847656 253.15625 1019.574219 252.105469 C 1018.296875 251.054688 1017.046875 249.972656 1015.820312 248.863281 C 1014.597656 247.753906 1013.398438 246.613281 1012.226562 245.449219 C 1011.054688 244.28125 1009.910156 243.085938 1008.796875 241.867188 C 1007.679688 240.648438 1006.59375 239.402344 1005.539062 238.128906 C 1004.480469 236.859375 1003.453125 235.5625 1002.457031 234.242188 C 1001.460938 232.921875 1000.5 231.582031 999.566406 230.214844 C 998.632812 228.851562 997.734375 227.464844 996.867188 226.058594 C 996 224.648438 995.164062 223.222656 994.363281 221.777344 C 993.5625 220.328125 992.796875 218.863281 992.066406 217.382812 C 991.335938 215.898438 990.640625 214.402344 989.976562 212.886719 C 989.316406 211.371094 988.691406 209.839844 988.105469 208.292969 C 987.515625 206.75 986.964844 205.191406 986.449219 203.621094 C 985.933594 202.050781 985.453125 200.46875 985.011719 198.875 C 984.570312 197.28125 984.167969 195.679688 983.800781 194.066406 C 983.4375 192.453125 983.109375 190.835938 982.820312 189.207031 C 982.53125 187.578125 982.28125 185.945312 982.066406 184.304688 C 981.855469 182.664062 981.679688 181.023438 981.546875 179.375 C 981.410156 177.726562 981.3125 176.078125 981.257812 174.425781 C 981.199219 172.773438 981.179688 171.121094 981.199219 169.464844 C 981.222656 167.8125 981.28125 166.160156 981.378906 164.511719 C 981.476562 162.859375 981.613281 161.214844 981.789062 159.570312 C 981.964844 157.925781 982.175781 156.285156 982.429688 154.652344 C 982.683594 153.019531 982.972656 151.390625 983.300781 149.773438 C 983.632812 148.152344 984 146.539062 984.402344 144.9375 C 984.808594 143.335938 985.25 141.742188 985.730469 140.160156 C 986.210938 138.578125 986.726562 137.007812 987.28125 135.449219 C 987.835938 133.894531 988.425781 132.347656 989.050781 130.820312 C 989.679688 129.289062 990.339844 127.773438 991.039062 126.277344 C 991.734375 124.777344 992.46875 123.296875 993.234375 121.832031 C 994.003906 120.367188 994.804688 118.921875 995.640625 117.496094 C 996.476562 116.066406 997.34375 114.660156 998.246094 113.277344 C 999.148438 111.890625 1000.082031 110.527344 1001.046875 109.183594 C 1002.011719 107.84375 1003.007812 106.523438 1004.039062 105.230469 C 1005.066406 103.933594 1006.121094 102.664062 1007.210938 101.417969 C 1008.296875 100.175781 1009.414062 98.957031 1010.558594 97.761719 C 1011.703125 96.570312 1012.875 95.40625 1014.078125 94.265625 C 1015.277344 93.128906 1016.5 92.019531 1017.753906 90.941406 C 1019.003906 89.863281 1020.28125 88.8125 1021.582031 87.792969 C 1022.886719 86.773438 1024.210938 85.785156 1025.558594 84.828125 C 1026.90625 83.871094 1028.273438 82.945312 1029.667969 82.050781 C 1031.058594 81.160156 1032.46875 80.296875 1033.902344 79.472656 C 1035.332031 78.644531 1036.785156 77.851562 1038.253906 77.09375 C 1039.722656 76.335938 1041.207031 75.613281 1042.710938 74.925781 C 1044.214844 74.238281 1045.734375 73.585938 1047.265625 72.96875 C 1048.800781 72.351562 1050.347656 71.769531 1051.910156 71.226562 C 1053.46875 70.683594 1055.042969 70.175781 1056.628906 69.707031 C 1058.214844 69.234375 1059.808594 68.804688 1061.414062 68.40625 C 1063.019531 68.011719 1064.632812 67.65625 1066.253906 67.335938 C 1067.878906 67.019531 1069.507812 66.738281 1071.140625 66.496094 C 1072.777344 66.253906 1074.417969 66.046875 1076.0625 65.882812 C 1076.652344 65.796875 1077.238281 65.816406 1077.820312 65.9375 C 1078.402344 66.058594 1078.945312 66.277344 1079.453125 66.59375 C 1079.957031 66.90625 1080.394531 67.300781 1080.757812 67.769531 C 1081.125 68.242188 1081.398438 68.757812 1081.578125 69.328125 C 1081.757812 69.894531 1081.835938 70.476562 1081.8125 71.070312 C 1081.785156 71.664062 1081.660156 72.238281 1081.429688 72.785156 C 1081.199219 73.335938 1080.882812 73.828125 1080.480469 74.265625 C 1080.074219 74.703125 1079.605469 75.058594 1079.078125 75.328125 C 1077.8125 76.035156 1076.570312 76.777344 1075.351562 77.554688 C 1074.132812 78.335938 1072.933594 79.148438 1071.761719 79.992188 C 1070.589844 80.839844 1069.441406 81.722656 1068.316406 82.636719 C 1067.195312 83.546875 1066.101562 84.492188 1065.03125 85.46875 C 1063.964844 86.449219 1062.925781 87.453125 1061.914062 88.492188 C 1060.90625 89.527344 1059.925781 90.59375 1058.980469 91.683594 C 1058.03125 92.777344 1057.113281 93.898438 1056.230469 95.042969 C 1055.347656 96.191406 1054.496094 97.359375 1053.679688 98.554688 C 1052.863281 99.75 1052.082031 100.96875 1051.335938 102.207031 C 1050.589844 103.449219 1049.878906 104.707031 1049.207031 105.988281 C 1048.535156 107.269531 1047.898438 108.570312 1047.300781 109.886719 C 1046.699219 111.207031 1046.140625 112.539062 1045.621094 113.890625 C 1045.097656 115.238281 1044.617188 116.601562 1044.171875 117.980469 C 1043.730469 119.359375 1043.328125 120.75 1042.964844 122.148438 C 1042.601562 123.550781 1042.28125 124.960938 1042 126.378906 C 1041.71875 127.800781 1041.476562 129.226562 1041.28125 130.660156 C 1041.082031 132.09375 1040.921875 133.53125 1040.808594 134.972656 C 1040.691406 136.417969 1040.617188 137.863281 1040.585938 139.308594 C 1040.550781 140.753906 1040.5625 142.203125 1040.613281 143.648438 C 1040.664062 145.09375 1040.753906 146.539062 1040.890625 147.980469 C 1041.023438 149.421875 1041.199219 150.855469 1041.414062 152.285156 C 1041.632812 153.71875 1041.890625 155.140625 1042.191406 156.558594 C 1042.488281 157.972656 1042.828125 159.378906 1043.207031 160.777344 C 1043.589844 162.171875 1044.007812 163.554688 1044.46875 164.929688 C 1044.929688 166.300781 1045.429688 167.660156 1045.964844 169 C 1046.503906 170.34375 1047.082031 171.671875 1047.695312 172.980469 C 1048.3125 174.292969 1048.964844 175.582031 1049.652344 176.855469 C 1050.34375 178.128906 1051.066406 179.378906 1051.828125 180.609375 C 1052.589844 181.839844 1053.386719 183.046875 1054.21875 184.234375 C 1055.050781 185.417969 1055.914062 186.578125 1056.8125 187.710938 C 1057.710938 188.847656 1058.640625 189.953125 1059.605469 191.035156 C 1060.566406 192.117188 1061.558594 193.167969 1062.582031 194.195312 C 1063.605469 195.21875 1064.65625 196.210938 1065.734375 197.175781 C 1066.816406 198.136719 1067.921875 199.070312 1069.058594 199.96875 C 1070.191406 200.867188 1071.347656 201.734375 1072.535156 202.566406 C 1073.71875 203.398438 1074.925781 204.195312 1076.152344 204.957031 C 1077.382812 205.722656 1078.632812 206.449219 1079.90625 207.136719 C 1081.179688 207.828125 1082.46875 208.484375 1083.777344 209.097656 C 1085.085938 209.714844 1086.414062 210.292969 1087.757812 210.832031 C 1089.097656 211.371094 1090.457031 211.875 1091.828125 212.335938 C 1093.199219 212.796875 1094.582031 213.21875 1095.980469 213.597656 C 1097.375 213.980469 1098.78125 214.320312 1100.199219 214.621094 C 1101.613281 214.921875 1103.035156 215.183594 1104.46875 215.398438 C 1105.898438 215.617188 1107.332031 215.796875 1108.773438 215.929688 C 1110.214844 216.066406 1111.660156 216.160156 1113.105469 216.210938 C 1114.550781 216.265625 1115.996094 216.277344 1117.445312 216.246094 C 1118.890625 216.214844 1120.335938 216.140625 1121.777344 216.027344 C 1123.222656 215.910156 1124.660156 215.753906 1126.09375 215.558594 C 1127.527344 215.359375 1128.953125 215.121094 1130.375 214.839844 C 1131.792969 214.5625 1133.203125 214.242188 1134.605469 213.878906 C 1136.007812 213.519531 1137.398438 213.117188 1138.777344 212.675781 C 1140.152344 212.234375 1141.519531 211.753906 1142.867188 211.234375 C 1144.21875 210.714844 1145.554688 210.15625 1146.871094 209.558594 C 1148.191406 208.960938 1149.488281 208.328125 1150.773438 207.652344 C 1152.054688 206.980469 1153.316406 206.273438 1154.554688 205.527344 C 1155.796875 204.785156 1157.015625 204.003906 1158.210938 203.1875 C 1159.40625 202.375 1160.578125 201.523438 1161.722656 200.640625 C 1162.871094 199.757812 1163.992188 198.84375 1165.085938 197.898438 C 1166.179688 196.949219 1167.246094 195.972656 1168.285156 194.960938 C 1169.320312 193.953125 1170.328125 192.914062 1171.304688 191.847656 C 1172.285156 190.78125 1173.230469 189.6875 1174.144531 188.566406 C 1175.058594 187.445312 1175.941406 186.296875 1176.789062 185.125 C 1177.636719 183.953125 1178.453125 182.757812 1179.230469 181.535156 C 1180.011719 180.316406 1180.753906 179.078125 1181.460938 177.816406 C 1181.785156 177.339844 1182.175781 176.933594 1182.636719 176.589844 C 1183.097656 176.25 1183.601562 175.992188 1184.148438 175.820312 C 1184.695312 175.644531 1185.253906 175.566406 1185.828125 175.582031 C 1186.398438 175.597656 1186.953125 175.703125 1187.492188 175.90625 C 1188.058594 176.019531 1188.589844 176.230469 1189.085938 176.527344 C 1189.582031 176.828125 1190.011719 177.203125 1190.378906 177.652344 C 1190.742188 178.097656 1191.023438 178.597656 1191.21875 179.140625 C 1191.414062 179.6875 1191.511719 180.25 1191.511719 180.828125 Z M 1191.511719 180.828125 " fill-opacity="1" fill-rule="nonzero"/></g><g clip-path="url(#321a556ff1)"><path fill="#fed030" d="M 704.433594 100.585938 C 704.070312 99.132812 702.6875 98.257812 701.230469 98.621094 C 700.285156 98.839844 699.484375 99.640625 699.265625 100.585938 C 694.609375 118.050781 683.113281 150.28125 657.792969 170 C 640.183594 183.679688 619.59375 193.140625 597.765625 197.578125 C 596.308594 197.867188 595.363281 199.25 595.65625 200.707031 C 595.875 201.726562 596.601562 202.453125 597.546875 202.742188 C 615.300781 207.691406 646.152344 218.53125 661.792969 236.941406 C 674.164062 251.492188 685.152344 287.945312 689.953125 305.773438 C 690.390625 307.15625 691.84375 308.027344 693.226562 307.59375 C 694.101562 307.375 694.828125 306.648438 695.046875 305.773438 C 699.996094 287.65625 712.800781 250.183594 736.738281 234.25 C 758.128906 219.988281 781.921875 212.859375 795.382812 209.65625 C 796.839844 209.292969 797.640625 207.835938 797.277344 206.382812 C 797.058594 205.507812 796.402344 204.78125 795.53125 204.5625 C 779.304688 199.761719 749.109375 188.917969 736.738281 172.695312 C 717.53125 147.519531 708.363281 117.175781 704.433594 100.585938 Z M 838.96875 250.109375 C 838.75 249.238281 837.875 248.730469 837.003906 248.945312 C 836.421875 249.09375 835.984375 249.527344 835.839844 250.109375 C 833 260.808594 825.945312 280.523438 810.445312 292.53125 C 799.675781 300.898438 787.089844 306.644531 773.699219 309.339844 C 772.828125 309.484375 772.246094 310.355469 772.464844 311.230469 C 772.609375 311.8125 773.046875 312.320312 773.628906 312.46875 C 784.46875 315.523438 803.386719 322.070312 812.917969 333.351562 C 820.488281 342.226562 827.179688 364.5625 830.164062 375.476562 C 830.382812 376.351562 831.328125 376.859375 832.128906 376.640625 C 832.710938 376.496094 833.074219 376.058594 833.292969 375.476562 C 836.347656 364.417969 844.132812 341.5 858.757812 331.75 C 871.855469 323.019531 886.40625 318.652344 894.628906 316.6875 C 895.503906 316.46875 896.011719 315.597656 895.792969 314.722656 C 895.648438 314.140625 895.210938 313.703125 894.703125 313.558594 C 884.734375 310.574219 866.324219 304.027344 858.757812 294.058594 C 846.972656 278.851562 841.367188 260.296875 838.96875 250.109375 Z M 892.15625 128.453125 C 892.011719 127.871094 891.429688 127.507812 890.847656 127.65625 C 890.484375 127.726562 890.191406 128.019531 890.046875 128.453125 C 888.152344 135.585938 883.496094 148.609375 873.164062 156.613281 C 866.035156 162.144531 857.667969 166 848.789062 167.820312 C 848.207031 167.964844 847.84375 168.472656 847.917969 169.054688 C 847.988281 169.492188 848.28125 169.78125 848.71875 169.855469 C 855.921875 171.894531 868.4375 176.257812 874.839844 183.753906 C 879.859375 189.648438 884.296875 204.488281 886.261719 211.695312 C 886.40625 212.277344 886.988281 212.566406 887.570312 212.421875 C 887.9375 212.347656 888.226562 212.058594 888.300781 211.695312 C 890.335938 204.34375 895.503906 189.136719 905.253906 182.660156 C 913.910156 176.839844 923.589844 174.003906 929.117188 172.695312 C 929.699219 172.546875 930.0625 171.964844 929.917969 171.382812 C 929.847656 171.019531 929.554688 170.730469 929.191406 170.582031 C 922.570312 168.617188 910.347656 164.253906 905.324219 157.632812 C 897.539062 147.519531 893.757812 135.222656 892.15625 128.453125 Z M 892.15625 128.453125 " fill-opacity="1" fill-rule="nonzero"/></g><g clip-path="url(#541af9997f)"><path fill="#4bc3a0" d="M 1007.792969 309.21875 C 964.894531 309.21875 930.132812 343.984375 930.132812 386.878906 C 930.132812 394.011719 931.113281 400.914062 932.917969 407.476562 C 934.480469 413.1875 936.671875 418.644531 939.433594 423.753906 C 940.101562 424.984375 940.804688 426.203125 941.535156 427.394531 L 1000.082031 528.8125 C 1000.207031 529.027344 1000.324219 529.257812 1000.460938 529.46875 C 1002.070312 531.792969 1004.75 533.3125 1007.789062 533.3125 C 1010.832031 533.3125 1013.519531 531.773438 1015.128906 529.4375 L 1015.378906 529.007812 L 1074.035156 427.414062 L 1076.152344 423.746094 C 1078.910156 418.640625 1081.097656 413.179688 1082.667969 407.476562 C 1084.464844 400.914062 1085.449219 394.011719 1085.449219 386.878906 C 1085.449219 343.984375 1050.683594 309.21875 1007.792969 309.21875 Z M 1007.789062 419.433594 C 989.800781 419.433594 975.222656 404.855469 975.222656 386.878906 C 975.222656 368.890625 989.796875 354.308594 1007.789062 354.308594 C 1025.773438 354.308594 1040.34375 368.890625 1040.34375 386.878906 C 1040.34375 404.855469 1025.773438 419.433594 1007.789062 419.433594 Z M 1007.789062 419.433594 " fill-opacity="1" fill-rule="nonzero"/></g><g clip-path="url(#ba85f49364)"><path fill="#4bc3a0" d="M 1165.011719 533.21875 C 1154.386719 532.835938 1144.34375 529.882812 1135.289062 524.476562 C 1128.964844 520.699219 1123.351562 515.789062 1118.722656 509.988281 C 1111.054688 500.378906 1106.441406 488.703125 1105.449219 476.417969 C 1105.203125 473.363281 1105.203125 469.640625 1105.449219 466.574219 C 1106.28125 456.167969 1109.734375 446.15625 1115.488281 437.445312 C 1118.984375 432.152344 1123.320312 427.386719 1128.253906 423.414062 C 1136.039062 417.144531 1145.183594 412.875 1154.972656 410.929688 C 1172.792969 407.386719 1191.296875 411.878906 1205.476562 423.195312 C 1208.566406 425.660156 1211.351562 428.34375 1213.917969 431.34375 C 1221.652344 440.367188 1226.636719 451.523438 1228.210938 463.328125 C 1228.59375 466.175781 1228.734375 468.429688 1228.734375 471.511719 C 1228.734375 474.144531 1228.632812 476.070312 1228.359375 478.457031 C 1226.511719 494.71875 1218.261719 509.621094 1205.484375 519.792969 C 1195.679688 527.597656 1183.804688 532.214844 1171.261719 533.101562 C 1169.480469 533.226562 1166.714844 533.277344 1165.011719 533.21875 Z M 1156.894531 496.183594 C 1156.894531 495.773438 1156.925781 489.921875 1156.964844 483.183594 C 1157.003906 476.445312 1157.039062 469.695312 1157.039062 468.183594 C 1157.039062 466.671875 1157.058594 465.449219 1157.078125 465.460938 C 1157.097656 465.472656 1161.644531 472.5625 1167.179688 481.207031 L 1177.238281 496.929688 L 1183.046875 496.917969 L 1188.851562 496.90625 L 1188.851562 446.078125 L 1177.117188 446.054688 L 1177.113281 446.78125 C 1177.113281 447.179688 1177.082031 452.964844 1177.042969 459.636719 C 1177.003906 466.308594 1176.96875 473.015625 1176.96875 474.542969 C 1176.96875 476.890625 1176.957031 477.3125 1176.902344 477.25 C 1176.863281 477.210938 1172.390625 470.234375 1166.957031 461.753906 C 1161.527344 453.269531 1157.054688 446.300781 1157.023438 446.269531 C 1156.984375 446.230469 1155.6875 446.199219 1152.660156 446.160156 C 1150.292969 446.128906 1147.628906 446.089844 1146.742188 446.070312 L 1145.132812 446.042969 L 1145.132812 471.457031 C 1145.132812 485.433594 1145.148438 496.886719 1145.164062 496.902344 C 1145.183594 496.921875 1147.828125 496.9375 1151.042969 496.9375 L 1156.890625 496.9375 L 1156.894531 496.1875 Z M 1228.976562 417.242188 C 1226.144531 414.828125 1222.300781 411.992188 1218.941406 409.832031 C 1206.519531 401.851562 1192.6875 396.847656 1178.417969 395.179688 C 1173.839844 394.644531 1170.707031 394.464844 1165.945312 394.464844 C 1162.714844 394.464844 1162.054688 394.480469 1159.746094 394.664062 C 1150.417969 395.382812 1140.71875 397.652344 1131.773438 401.207031 C 1127.507812 402.898438 1123.132812 405.007812 1119.191406 407.261719 C 1113.980469 410.242188 1108.640625 413.976562 1104.492188 417.539062 C 1104.382812 417.632812 1104.386719 417.613281 1104.535156 417.34375 C 1104.679688 417.082031 1166.929688 309.253906 1166.949219 309.230469 C 1166.957031 309.222656 1229.371094 417.304688 1229.558594 417.648438 C 1229.59375 417.710938 1229.613281 417.761719 1229.605469 417.761719 C 1229.597656 417.761719 1229.3125 417.527344 1228.976562 417.242188 Z M 1228.976562 417.242188 " fill-opacity="1" fill-rule="nonzero"/></g><g clip-path="url(#7b6911e7db)"><path fill="#4bc3a0" d="M 698.164062 438.566406 C 699.144531 438.566406 700.097656 438.058594 700.628906 437.144531 L 743.195312 363.414062 C 743.570312 362.761719 743.671875 361.984375 743.480469 361.257812 C 743.285156 360.53125 742.808594 359.910156 742.15625 359.535156 L 705.503906 338.375 C 704.148438 337.589844 702.410156 338.054688 701.625 339.414062 L 659.058594 413.144531 C 658.273438 414.5 658.738281 416.242188 660.097656 417.027344 L 696.746094 438.1875 C 697.191406 438.445312 697.679688 438.570312 698.164062 438.570312 Z M 698.164062 438.566406 " fill-opacity="1" fill-rule="evenodd"/></g><path fill="#4bc3a0" d="M 730.113281 444.21875 C 731.09375 444.21875 732.050781 443.707031 732.578125 442.796875 L 764.066406 388.253906 C 764.441406 387.601562 764.542969 386.824219 764.351562 386.101562 C 764.15625 385.371094 763.679688 384.75 763.027344 384.375 L 744.117188 373.457031 L 709.785156 432.917969 L 728.695312 443.835938 C 729.144531 444.09375 729.632812 444.21875 730.117188 444.21875 Z M 730.113281 444.21875 " fill-opacity="1" fill-rule="evenodd"/><path fill="#4bc3a0" d="M 836.988281 489.925781 C 837.972656 489.925781 838.925781 489.417969 839.453125 488.503906 L 857.25 457.675781 C 857.628906 457.023438 857.730469 456.246094 857.535156 455.519531 C 857.339844 454.792969 856.863281 454.171875 856.207031 453.792969 L 763.683594 400.546875 L 743.046875 436.300781 L 835.574219 489.550781 C 836.023438 489.804688 836.507812 489.929688 836.988281 489.929688 Z M 836.988281 489.925781 " fill-opacity="1" fill-rule="evenodd"/><g clip-path="url(#27ea1456f2)"><path fill="#4bc3a0" d="M 867.683594 496.507812 C 868.664062 496.507812 869.621094 495.996094 870.148438 495.085938 L 878.296875 480.96875 C 878.675781 480.316406 878.777344 479.539062 878.582031 478.8125 C 878.386719 478.085938 877.910156 477.464844 877.257812 477.085938 L 858.886719 466.480469 L 847.894531 485.519531 L 866.265625 496.128906 C 866.710938 496.386719 867.199219 496.511719 867.683594 496.511719 Z M 867.683594 496.507812 " fill-opacity="1" fill-rule="evenodd"/></g><path fill="#4bc3a0" d="M 761.792969 519.78125 L 799.644531 519.78125 C 801.214844 519.78125 802.488281 518.507812 802.488281 516.941406 L 802.488281 485.359375 C 802.488281 483.789062 801.210938 482.519531 799.644531 482.519531 L 761.792969 482.519531 C 760.222656 482.519531 758.953125 483.792969 758.953125 485.359375 L 758.953125 516.941406 C 758.953125 518.507812 760.222656 519.78125 761.792969 519.78125 Z M 761.792969 519.78125 " fill-opacity="1" fill-rule="evenodd"/><g clip-path="url(#79d71df34f)"><path fill="#4bc3a0" d="M 845.414062 586.191406 C 845.9375 586.191406 846.472656 586.042969 846.949219 585.738281 C 848.269531 584.890625 848.652344 583.132812 847.804688 581.8125 L 802.039062 510.554688 C 801.191406 509.238281 799.433594 508.851562 798.109375 509.699219 C 796.789062 510.546875 796.40625 512.304688 797.253906 513.625 L 843.019531 584.882812 C 843.5625 585.726562 844.480469 586.191406 845.414062 586.191406 Z M 845.414062 586.191406 " fill-opacity="1" fill-rule="evenodd"/></g><g clip-path="url(#cd109293df)"><path fill="#4bc3a0" d="M 717.910156 586.191406 C 718.867188 586.191406 719.796875 585.710938 720.332031 584.835938 L 764.210938 513.582031 C 765.035156 512.242188 764.621094 510.496094 763.285156 509.671875 C 761.949219 508.84375 760.195312 509.265625 759.375 510.601562 L 715.496094 581.859375 C 714.671875 583.195312 715.089844 584.941406 716.425781 585.765625 C 716.886719 586.054688 717.402344 586.191406 717.910156 586.191406 Z M 717.910156 586.191406 " fill-opacity="1" fill-rule="evenodd"/></g><g clip-path="url(#76f9424f43)"><path fill="#4bc3a0" d="M 780.71875 586.191406 C 782.289062 586.191406 783.5625 584.914062 783.5625 583.347656 L 783.5625 512.089844 C 783.5625 510.523438 782.285156 509.253906 780.71875 509.253906 C 779.148438 509.253906 777.878906 510.523438 777.878906 512.089844 L 777.878906 583.347656 C 777.878906 584.917969 779.148438 586.191406 780.71875 586.191406 Z M 780.71875 586.191406 " fill-opacity="1" fill-rule="evenodd"/></g><path fill="#4bc3a0" d="M 791.40625 476.703125 L 791.40625 470.839844 L 770.03125 458.539062 L 770.03125 476.703125 Z M 791.40625 476.703125 " fill-opacity="1" fill-rule="evenodd"/></svg>